<?xml version="1.0" encoding="utf-8"?>
<!-- Generator: Adobe Illustrator 22.1.0, SVG Export Plug-In . SVG Version: 6.00 Build 0)  -->
<svg version="1.1" id="Layer_1" xmlns="http://www.w3.org/2000/svg" xmlns:xlink="http://www.w3.org/1999/xlink" x="0px" y="0px"
	 viewBox="0 0 1400 980" style="enable-background:new 0 0 1400 980;" xml:space="preserve">
<style type="text/css">
	.st0{fill:#EEADA3;}
	.st1{fill:#EEB4A1;}
	.st2{fill:#EFB29F;}
	.st3{fill:#EFB5A3;}
	.st4{fill:#EDA59C;}
	.st5{fill:#EDB3A1;}
	.st6{fill:#F0B5A3;}
	.st7{fill:#ECA29B;}
	.st8{fill:#EFB1A6;}
	.st9{fill:#ED9894;}
	.st10{fill:#ECAE9F;}
	.st11{fill:#EFA79F;}
	.st12{fill:#F2A29C;}
	.st13{fill:#EEA59D;}
	.st14{fill:#EFB19B;}
	.st15{fill:#EEB59F;}
	.st16{fill:#F3A9A2;}
	.st17{fill:#EE9E98;}
	.st18{fill:#EDB4A4;}
	.st19{fill:#EDADA2;}
	.st20{fill:#EFB7AB;}
	.st21{fill:#EBA198;}
	.st22{fill:#F2A19D;}
	.st23{fill:#EDA79F;}
	.st24{fill:#EEA59E;}
	.st25{fill:#EDB2A0;}
	.st26{fill:#EDB3A3;}
	.st27{fill:#EEB4A3;}
	.st28{fill:#EEAAA1;}
	.st29{fill:#EDB29E;}
	.st30{fill:#EEB5A4;}
	.st31{fill:#EDAF9C;}
	.st32{fill:#EC9E97;}
	.st33{fill:#F1A69F;}
	.st34{fill:#F0ACA3;}
	.st35{fill:#EF9D98;}
	.st36{fill:#EF9894;}
	.st37{fill:#EE908D;}
	.st38{fill:#EE9491;}
	.st39{fill:#ECB19B;}
	.st40{fill:#F19B97;}
	.st41{fill:#F1A09A;}
	.st42{fill:#EDB6A0;}
	.st43{fill:#F2A09C;}
	.st44{fill:#EC9994;}
	.st45{fill:#ECB6A3;}
	.st46{fill:#F29090;}
	.st47{opacity:0.4;fill:url(#SVGID_1_);enable-background:new    ;}
	.st48{fill:#FFFFFF;}
</style>
<g>
	<g>
		<path class="st0" d="M681.8,289.9c-1.6,16-6.1,31-14.1,45c-4.2,2.1-8.2,2.5-12-0.9c-1-1.5-0.5-3.2-0.4-4.8
			c0.2-3.2-1.1-5.8-3.1-8.1c-1.3-1.5-2.8-1.9-4,0.1c-0.9,1.4-1.8,2.9-3.9,2.2c-1.8-0.7-1.6-2-1.2-3.7c0.5-1.9-1.2-2.6-2.6-3.1
			c-2.7-0.9-4.9-2.8-7.6-3.5c-0.6-0.2-1.6-0.4-1.7-0.8c-1-4.3-5.3-4.4-8-6.4c-3.4-2.1-6.1-5.4-9.1-7.4c-4.9-3.1-6.5-5.9-6.6-11.8
			c-0.1-5.8-5.3-8.1-11.3-6.9c-0.7,0.1-1.4,0.4-2,0.2c-6.7-2.5-14-3-20.7-5.5c-2.4-0.9-3.5-3.4-4.8-5.6c-3.3-5.5-5.3-6.3-11.2-4.4
			c-0.6,0.2,0.2,0-0.5,0.2c-3,1-4.2-1.6-6.3-2.7c-1.2-0.6-2.7,3.6-5.6,2.7c-2.2-0.6-2.5-2.6-3-4.2c-1.2-3.9-3.5-5.8-7.7-5.3
			c-2.7,0.3-5.1-1.1-7.6-1.7c-5.5-1.3-11.3-2.3-17-1.4c-2.2,0.3-4,0.7-5.3-1.3c-1.7-2.5-4-2.7-6.6-1.8c-8.6,0.2-17.2,0.9-25.8-0.6
			c-1.3-1-1.4-2.5-1.4-4c0.8-2.6,0.7-5.9,4.7-6.1c0.5,0.2,1,0.5,1.3,1c0.6,3.9,3,5.3,6.9,5.3c9.6,0,19.2-0.5,28.8-0.2
			c10.1-1.3,19.3,3.3,29,4.1c-0.6-1.1,0-2.4,1.2-3.8c4.1-4.8,3.3-9-2.1-11.9c-0.9-0.5-1.8-0.9-2.6-1.5c-1-0.7-1.8-1.6-1.4-2.9
			c0.3-1.1,1.3-1.4,2.3-1.6c2.6-0.5,5.3-0.2,7.9-0.3c5.3,0.1,10.7,0.3,16,0c7-0.4,11.4,2.7,14.9,8.5c2.7,4.4,7.4,7.1,11.7,9.8
			c5.5,3.4,10.5,7.6,16.2,10.9c3.6-7.2,9.4-3.2,14.7-2.6c5,2.2,3.9,7.6,6,11.4c0.4,0.7-2.6,1.3,0.4,2.2c3,0.9,3,5.2,4.8,7.8
			c1.5,2.2,7.2,4.2,9.2,2.4c4.8-4.4,9.2-3.9,14.1-0.2c4.3,3.3,10.2,4.1,13.8,8.7c1.2,1.6,3.6,1.5,5.6,1.5
			C677,287,679.6,287.8,681.8,289.9z"/>
		<path class="st1" d="M486.7,398.9c-4.7-1.4-8.8-3.9-13-6.3c-1.1-1.7-1.4-3.7-1.8-5.7c-0.3-1.7,0.2-3.5,2-4.2
			c2.2-0.9,2.7,1.2,3.5,2.5c0.4,0.7,0.6,1.5,1.3,2.6c0-2.6-1.3-4.5-2-6.4c-1.3-3.4,0.2-4.6,3.3-4.8c4.7-0.2,8.6,0.9,10.7,5.6
			c0.3,0.7,0.6,1.6,2.5,1.5c-0.2-3.8-1.2-7.6-0.4-11.4c0.3-1.3-1.3-0.9-2.3-1c-3.8-0.3-5.6-2.7-5.8-6.2c-0.2-3.4,2.5-5.9,6.3-6.4
			c7-1,12.6-5.3,19-7.7c1.5-0.6,2.6-2.1,3.4-3.6c0.8-1.5,1.6-3.1,3.7-2.6c2.1,0.5,3.7,1.8,3.9,4c0.1,1.3-0.7,2.1,1.7,1.5
			c3.3-0.8,4.8,1.3,4.5,4.8c0.5-2.4,2.4-3.1,4.5-3.6c-2.3-3.2-7.3-0.4-8.6-4.5c-0.8-2.4-0.9-4.9,0.4-7.7c-2.1,1.4-4.2,1.8-6.4,1.7
			c-3.1-0.2-3.3-2.7-4.1-4.8c-1.2-3-4.5-1.5-6.5-2.7c-2-1.7-4.4-3-6.7-4.3c-3.5-2-6.4-1.2-8.1,2.2c-1.1,2.3-2.5,2.5-4.3,1.4
			c-2.2-1.4-4.1-1.1-5.8,0.8c-1.4,0.6-2.9,0.7-4.3,0.1c-2.1-3.1,0.8-5,1.8-7.8c-2.7,2-2,5.3-3.4,7.6c-2.1,1.5-3-0.2-3.8-1.6
			c-1.1-1.8-1.8-4.3-0.1-5.5c4.4-3.1,4.7-8.1,6.6-12.4c3-1.5,3.1,1.4,4.3,2.7c0.9,1.1,1.9,2,3.4,1.5c1.4-0.4,1.2-1.8,1.4-2.9
			c0.4-1.9-0.7-5.2,2.2-5.1c2.7,0.1,2.8,3.2,2.8,5.6c0,0.5,0,1,0.7,1.7c1.7-1.8,1.5-4.2,1.9-6.3c0.6-3.3,1.7-5.7,5.7-5.4
			c4,0.4,5.5,3.3,5.6,6.5c0.1,2.8-0.4,4.8,3.5,4.2c1.5-0.2,2.9,1.1,2.8,2.9c-0.1,1.7-1.9,1.5-3.1,1.8c-1.2,0.3-3.1-0.3-3.4,1.3
			c-0.4,2.1,1.7,2.7,3.2,3.2c5.5,1.9,10.2,5.5,16.2,6.4c1.6,0.2,2.6,1.4,3.5,2.6c-1.4-3.6,0.6-5.8,3.5-7.6c1.4-0.6,2.8-1.1,4.3-0.7
			c2.9,6.1,8.9,5.2,14,6.2c0.5,0.5,0.7,1.2,0.7,1.9c-1,2.8,0.4,4.3,2.8,5.2c1.2,1.1,1.9,2.7,1.4,4.1c-1.9,4.8-2.5,10-4,14.8
			c-0.9,2.6-2.9,3.5-5.5,3c-3.7-0.6-7.6-0.1-11.4-1c4.2,3,7.3,8.1,13.8,6.1c1.5-0.5,3.4-0.2,4.9,0.5c3.4,1.4,6.7,1.7,10.2,0.4
			c2.6-1,4.6-0.4,5.3,2.6c0.8,3.2,3.1,3.9,6.1,3.9c3.9,0.1,6.2,2,6.4,6.1c-0.2,0.5-0.4,0.9-0.8,1.2c-0.3,0.2-0.6,0.4-0.9,0.4
			c-5.2-0.9-10.5-2.9-15.2,1.5c-0.7,0.6-2,0-2.7-0.8c-2.3-2.9-4.4-2.9-6.9-0.1c-2,2.3-4.8,2.1-7.5,1.4c-2.1-0.5-3.5-0.3-5.2,1.5
			c-2.6,2.9-8.9,2.3-13.6-0.8c0.7-3.5-0.4-5-3.8-4.5c-2.1,0.3-4.2,0.5-6.3,1c-0.7,1.9,2.6,4.4-0.8,5.6c-2.7,0.9-4.9-0.5-6.6-2.4
			c-1.8-2.1-1.5-4.5,0.4-6.2c2.9-2.6,2.4-5.1,0.5-7.9c-0.5-0.7-0.9-1.5-1.9-1.3c-1,0.2-0.8,1.2-1,2c-0.9,3.5-4.4,6.3-2.9,10.7
			c0.3,0.9-1.6,2.3-2.4,1.9c-3.9-2-3.8,1.5-5,3.3c-3,4.4-7.3,5.4-12.6,4.3C487.8,393.4,489.9,396,486.7,398.9z"/>
		<path class="st2" d="M582.9,374.2c-3.1,3.1-4,0.2-9.1,1.2c-2.7,0.6-6.1-0.6-6.1-4.8c0-2.7-1.2-3.2-3.5-2.1
			c-3.6,1.7-7.2,1.9-10.9-0.2c-1.3-0.7-3.5-1.1-4.8-0.5c-7.6,3.5-10.5-4.3-15.8-6.2c-1.1-0.4-1.1-1.6-0.5-2.5c0.7-1.1,2-1.7,3-0.9
			c3.8,3.1,8.4,0.9,12.5,2.3c3.5,1.2,3.3-3.3,3.6-4.7c0.7-3.9,0.9-7.8,3.2-11.3c0.9-1.4,0.1-3.2-0.8-4.7c-0.2-2.2-3-2.7-3-5
			c0-0.7,0-1.3,0-2c1-1.3,2.5-2.1,2.9-3.9c0.3-1.3,0.7-2.8,2.5-2.4c1.5,0.4,1.9,1.9,1.8,3.2c-0.5,3.7,1.9,3,4,2.9
			c0.9,0.9,1.2,2.2,0.8,3.2c-2.2,4.9-0.4,9.2,1.4,13.7c1.9,4.7,11.5,10.4,16.3,8.7c4-1.3,4-5.2,4.4-8.6c3.9,0.4,7.5,1.5,10.3,4.3
			c-0.3,1.7-1.7,2.9-2.4,4.3c1,2.9,3,2.3,5.1,1.6c4.9-1.6,5.3-1.3,5.9,3.6c3-3.9,2.9-3.8,6.1,0.4c1.8,2.3,4.1,4.3,5.1,7.7
			c2.4-2.2,2.1-4.8,2.8-7c0.4-1.3,0.9-2.8,2.5-2.7c1.7,0.1,1.6,1.9,1.8,3.1c0.4,2.8-0.3,5.6,0.2,8.4c0.6-3.6,2.6-4.9,5.8-3.4
			c2.9,1.4,5,3.8,5.8,7.1c0,0.2,0,0.5,0,0.7c-18,15.5-38.5,25.8-61.9,30c-1.6,0.7-3.3,1.1-4.5-0.5c-1.2-1.7-1.4-3.7-0.4-5.7
			c0.4-0.9,1.2-1.6,1.8-2.4c1.1-1.5,0.8-2.8-0.7-3.9c-1.3-1-2.5-0.5-3.5,0.6c-0.7,0.7-1.2,1.6-1.9,2.4c-1.4,1.5-3.1,1.9-5,1.2
			c-1.9-0.8-2-2.5-1.9-4.2c0-0.8,0.2-1.6,0.3-2.5c0.3-2.3,0.1-4.5-2.6-5.2c-2.5-0.7-4.9-0.7-6.7,1.8c-4.1,5.8-4.2,5.8-10.7,3.5
			c-2.3-0.8-4.6-0.7-6.9-0.8c-2.2-0.1-4.4-0.3-6.1-1.7c-2.4-2-3.2-3.9,0.3-5.7c1.6-0.3,3-1.7,4.8-1.3c0.2,0.1,0.4,0.3,0.6,0.4
			c3.2,1.5,6.6,1.7,10,2c0.8,0.1,2.2-0.2,2.3-0.5c1-5.6,4.4-3.3,7.6-2.6c2.6,0.6,5,0.3,6.8-2.6c2-3.3,4.7-2.8,6.4,0.5
			c1.2,2.4,2.3,2.3,4.1,0.8c3.2-2.6,6.5-5.4,10.6-1C577.1,381.2,579.2,380.7,582.9,374.2c2.1-2.2,4.6-2.3,7.7-3.5
			c1.4-0.6,3-1.3,4.1,0.2c1.2,1.5,0.6,3.2-0.9,4.4c-2.2,1.8-0.9,2.7,0.8,3.6c1,0.5,2.2,0.9,3.1,1.6c1.6,1.2,3.4,2.7,2.3,4.9
			c-1.1,2.3-3.3,3.2-5.9,2.4c-2.4-0.7-4.7-1.8-6.4-3.7c-1-1.1-1.9-2.4-3.3-3c-2.2-1-3.7-0.6-4.3,2.1c-1.4,6.3-1.4,6.4,5.1,6.4
			c3.3,0,6.7-0.2,10,0.1c3.8,0.3,6.5-1.3,9.2-3.9c3.4-3.3,1.2-7,0.7-10.2c-0.3-2.3-3.6-2.9-6.3-2.2c-1.7,0.5-3.5,0.6-3.7-1.9
			c-0.2-3-2.1-2.6-4.2-2.4C588.9,369.2,586.7,369.3,582.9,374.2z"/>
		<path class="st3" d="M506.7,332.8c3.7,0.2,7.9-1.4,8.4,5.3c0.2,3,4.5,1.9,7,0.7c1.2-0.6,2.2-2.8,3.7-0.9c1.6,1.9-1.2,1.7-1.7,2.7
			c-1.2,2.3-0.2,4.6,0.2,6.7c0.3,1.4,2.2,1.5,3.9,0.9c2.3-0.8,3.6,1.3,5.1,2.4c0.6,0.5,1.1,1.4,0.5,2.2c-0.3,0.4-1.2,0.8-1.7,0.6
			c-2.3-0.9-3.5-0.4-3.5,2.3c0,1.8-1.1,2.4-2.7,1.9c-1.6-0.5-1.3-1.7-0.6-2.8c0.8-1.2,1.6-2.3-0.3-3.2c-1.3-0.7-2.5-1-3.5,0.4
			c-0.8,1.1-1.8,2.5-3.2,1.3c-1.3-1.1,0.4-2,1.1-2.8c2.1-2.7-0.7-3.6-2-4.5c-1.9-1.4-2.1,0.4-2.9,1.8c-2.1,3.7-5.2,6.3-9.5,7
			c-2,0.3-4.2,0.4-5.5,1.9c-2.3,2.6-5,3.4-8.4,3.2c-3.9-0.3-5.6,2.6-5.2,5.7c0.3,2.4,1.3,6.1,5.9,4.1c1.4-0.6,4.3-0.2,2.6,3.3
			c-1.3,2.7-1.3,5.7,0.4,8.6c1.3,2.1,0.3,3.6-1.8,4.2c-1.8,0.5-2.9-0.1-3.4-2.4c-1.1-4.6-7.7-7.4-11.6-5.4c-1.3,0.7-0.8,1.5-0.3,2.4
			c1,2.1,2,4.1,2.7,6.3c0.4,1.3,1,3.3-1,3.8c-1.7,0.5-1.9-1.2-2.3-2.5c-0.5-1.7-1.4-3.2-2.1-4.9c-4.8,2.8,0.7,6.6-1.3,9.5
			c-14.1-8.1-26.5-18.2-36.9-30.8c2.5-3.2,7.3-4.7,11.4-2.4c3.5,2.1,7.1,1.5,10.6,1.5c4.6,0,2.2-4.4,3.1-6.6c0.8-2-0.7-3.1-2.8-2.9
			c-4.5,0.3-4.7-2.8-4.7-5.9c0-4.2,0-8.3-2.5-12c-0.5-0.8-0.9-1.9-2.5-1.6c-0.8,3.3,1.7,5.7,2.7,8.5c0.8,2.1,2.7,4.5-0.2,6.1
			c-3,1.7-5-0.5-6.7-2.7c-1.2-1.6-2.1-3.6-2.1-5.5c0.1-4.9-1.9-9-4.3-13.1c-1-1.7-2.5-3.6-0.4-5.4c2.1-1.8,4.4-1.4,6.3,0.4
			c1.7,1.6,3.5,3.1,6,3.2c1,0.1,1.9,0.2,2.8,0.6c1.2,0.6,2.6,1.5,2.6,2.7c0.1,5.1,3.2,3.7,6,3c0.9,0.9,1.3,2.1,1,3.4
			c-0.5,1.6-0.1,2.7,1.4,3.8c5.3,3.6,11,6.8,16.4,10.1c4.1,2.5,9.7,4.8,15.3,4.4c1.3-0.1,3.2,0,3.2-1.6c0-2.2-2.1-1.5-3.5-1.6
			c-0.7-0.1-1.3,0.1-2,0.1c-5,0.4-7.6-1.2-9.3-6.1c-1.2-3.5,0.4-6.2,4.1-6c3.3,0.2,5-0.7,7.3-3.3C498.6,330.1,503.1,331,506.7,332.8
			z"/>
		<path class="st4" d="M405.8,245.8c-0.3-2.9,0.7-5.5,1.6-8.1c3.5-0.8,6.7-4.8,10.5-0.7c0,0.8-0.9,1.1-1.2,1.8
			c0.3-0.4,0.7-0.7,1-1.1c3.3-1.9,6.3,2,9.6,0.5c1.6,1.1,3.1,0.8,4.5-0.2c0.4-2.1-3.1-1.4-2.6-3.6c0.5-2.2,2.7-2.3,4-3.4
			c1-0.9,1.4-3.4,0.1-2.9c-5.3,1.8-6.7-1.9-8.2-5.6c-5.4,5.7-7.7,5.7-13.3,0.3c4.9-14.3,12.3-27.3,21.8-39c0.7-0.1,1.3-0.3,1.9-0.4
			c1.9-0.3,4.2-1.3,5.4,1c1.1,2-0.6,3.4-2,4.6c-1.9,1.6-1.8,3.4-0.5,5.3c0.9,1.2,1.8,2.4,1.6,4.1c-0.2,3.5,2.1,4.1,4.5,3.2
			c4.1-1.4,7.4-2.7,10.6,2.3c1.2,1.9,5.1,2.8,8.2,2.7c2.5-0.1,5-0.1,7.5,0c2.4,0.1,5.1,0.4,5.2,3.4c0.2,3.4-2.8,3.8-5.2,4
			c-3.1,0.2-6.3,0.4-9.4-0.5c-1.4-0.4-3.2-1.5-4.5,0.5c6.1-0.2,12.2,0.3,18.2,1.1c0.5,0.3,0.8,0.6,0.9,1.2c-2,3.3-2.3,3.4-8.3,2.9
			c3.5-1,7.6,1.6,12,2.2c2.6,0.3,5.4-0.1,7.1,2.6c0,2.6-2.2,2.5-3.9,3.1c-2.2,0.8-4.6,1.2-5.7,3.6c-0.7,1.4-1.9,1.4-2.9,0.9
			c-4.2-2.1-8.8-0.8-13.2-1.2c-2.7-0.3-6.3,1.1-8.3,3.6c-2.5,2.9-4.6,2.6-7.3,0.5c-1.1-0.9-2.3-2.3-3.9-0.9c-1.2,1-0.8,2.3-0.4,3.7
			c0.8,2.3-2,8.7-4.3,8.7c-3.4,0-5.1,3.1-8.1,3.3c-0.4,0.2-0.9,0.3-1.3,0.4c-1.6,0.2-2.9,1.5-4.6,1.3c-0.9-0.5-1.2-1.4-1.2-2.4
			c0.5-1.9,0.1-3.2-2.2-3.3c-3.1-0.2-6.2-0.7-9.3,0.6C408.8,246.7,407.3,247.3,405.8,245.8z"/>
		<path class="st5" d="M450.7,324.8c-2.9,0.1-5.1-1.2-6.8-3.5c-1.3-1.9-3.3-2-4.8-0.9c-2.1,1.4-0.1,2.9,0.7,4.2
			c2.5,4.2,5,8.1,4.4,13.6c-0.3,2.6,1.3,6.1,4.7,7.6c1.3,0.6,2.2,0.5,3.1-0.3c0.8-0.8,0.4-1.8-0.1-2.7c-1.5-2.8-2.7-5.6-4.3-8.3
			c-1.3-2.2-0.3-3.5,1.3-4.5c1.8-1.2,2.7,0.5,3.5,1.7c2.9,4.3,3.6,9,3.3,14.1c-0.2,2.8-0.5,6.4,4.4,4.1c1.6-0.8,2,0.9,2.6,1.6
			c2.7,3.2-0.9,6.4-0.3,9.8c0.3,1.7-3.2,0.9-5,1.4c-5.3,1.3-9.4-2.6-14.3-2.7c-2.4,0-4.6,0.4-6.4,2c-9.1-10-16.1-21.3-21.2-33.8
			c1.4-1.8,1.4-1.8,5.7-2.3c0.3-1.3-0.8-1.7-1.6-2.1c-2.8-1.4-2.8-3.1-1.2-5.5c0.9-1.3,2.8-3,0.8-4.7c-1.9-1.6-3.3-0.1-4.6,1.2
			c-1,1.1-2.2,2-3.9,1.3c-1.3-2.5-2.2-5-2.2-7.8c-0.3-3.8,2-4.4,5-4c1.8,0.2,3.4,1.3,5.7,1.4c-1-1.7-1.7-3.3,0.4-4.5
			c1.7-1,3-0.2,4.5,0.8c6.4,4.5,6.4,4.4,11.6,0c1.1,0.7,1,2.5,3.1,2.9c0.7-5,1.1-9.9,1.9-14.7c0.4-2.4,1-4.2,3.3-5.1
			c1.4-0.6,2.6-0.1,3.5,1.1c1.5,1.8,0.9,3.7,0.1,5.6c-1.2,2.7-2.6,5.4-2.5,8.5c0,1.3-0.4,3.2,0.6,3.8c6,3.4,2.8,10.1,5.8,14.6
			C452.9,320.6,452.1,322.8,450.7,324.8z"/>
		<path class="st6" d="M524.7,385.8c-1,0.1-2.1-0.2-2.7,0.9c-0.5,1.1,0.4,1.7,1.2,2.4c1.6,1.4,3.4,1.8,5.5,1.7
			c3.6-0.1,7.1-0.3,10.5,2c2.1,1.5,4.6,0.8,5.6-2.5c1.3-4.3,5.3-6,9.8-4.4c3.7,1.4,3.4,4.4,2.7,7.5c-0.4,1.8-1.8,4.1,0.9,5.1
			c2.4,0.9,3.5-0.8,4.5-2.7c0.8-1.6,2.1-3.9,3.8-3.4c1.8,0.5,3.8,2.3,4.6,4c0.7,1.6-0.2,3.6-2.5,4.7c-2.2,1-1.2,3.1-0.9,4.9
			c0.4,2.5,2.5,1.6,4,1.8c-4.2,1.9-8.7,2-13.1,2.4c-17.6,1.5-35.1,1.3-52.1-4.4c-1.3-7.7-1.2-7.9,9.2-8.5c0.1-1.1-1-1.1-1.4-1.8
			c-2.4-4.3-2.5-4.4-6.5-1.1c-2.3,1.9-4.5,2.6-7.1,0.6c-1.1-0.8-2.4-0.9-3.8-1c-5.3-0.3-5.7,0.1-4.6,5.1c0.1,0.7-0.2,1.3-0.7,1.8
			c-1.8-0.4-3.6-0.8-5-2.1c0.5-2.7,1.2-5.4-2.2-7.1c-1-0.5-1.1-2.1-0.3-3.1c0.5-0.7,1.1-0.3,1.7,0c7.1,2.8,11.1,0.7,12.9-6.6
			c0.2-0.9,0.8-1.8,1.2-2.5c1.9-0.3,1.6,1.1,1.8,1.9c0.3,1.1,1,1.2,1.9,0.9c0.9-0.4,1.9-0.8,1.8-2.1c-0.1-0.6-0.4-1.3-0.8-1.8
			c-0.9-1.1-1.1-2.7-0.2-3.1c3.6-1.6,1.3-6.3,4.3-8c2-1.1,6.2,2.1,6.1,5.4c0,1.8,1.4,4.7-2.3,5.6c-1.7,0.4-2.6,2.7-1.2,4.6
			c1.4,1.9,3.5,3.6,5.9,2.7c2.2-0.7,0.3-2-0.4-2.9c-0.7-0.9-1.6-1.9-0.8-3.1c0.6-0.9,1.9-0.9,2.7-0.5c1.9,1,3.7,0.1,5.2-0.6
			c3.7-1.7,5.5,1.3,7,3.2c1.5,2-1,2-2.4,2.2C526.4,382.4,525.8,384.6,524.7,385.8z"/>
		<path class="st7" d="M475.7,215.8c-4.7-0.6-9.6,1.1-14.2-1.2c-1.4-0.7-3.2,0.2-4.2,1.9c-0.6,0.9-1.4,1.5-2.5,0.7
			c-1.2-1,0.1-1.7,0.4-2.5c1-2.9,1.8-4.7,5.6-2.6c3.7,2,8.1,0.9,12.2,0.5c1.2-0.1,2.7-0.8,2.4-2.6c-0.3-1.6-1.6-2-3-2.1
			c-2.7,0-5.4-0.4-8,0.1c-3.9,0.7-6.8-2.5-10.4-2.3c-0.3,0-0.8-0.3-0.8-0.5c-0.6-6.9-4.5-3.2-7.5-2.3c-5.4,1.6-6,1.1-6.3-4.8
			c-0.1-1.7-1.7-2.4-2.5-3.6c-1.7-2.5-2.3-5,1.1-6.5c1.4-0.7,3.1-1.2,2.3-3.1c-0.7-1.8-2.2-0.5-3.4-0.2c-1.2,0.3-2.3,0.4-3.2-0.8
			c5.7-7,11.4-14,18.9-19.2c2.2,2.1,0.3,6.9,5,7.6c1.2,0.2,2.4,1.1,3.8,0.8c3.5-0.8,4.8,1.2,5.4,4.1c1.4,7.1,1.4,7.1,8.7,4.8
			c0.5-0.1,1.2-0.3,1.4,0c3.5,4.2,9.6,2.9,13.4,6.6c1.2,1.1,2.5,0.3,3.8,0.4c3.7,0.5,7.1,1.5,8,5.8c-1.3,1.8-2.7,3.5-5,4.2
			c-2.8,0.1-5.9,0.5-5.4-4.1c0.1-1.5-1.4-0.9-2.3-1c-0.8,0-1.7,0.2-1.8,1.2c-0.1,1,0.7,1.6,1.5,1.7c2.7,0.3,3.8,2.3,5.1,4.2
			c0.8,2.2-0.3,3.7-1.7,5.2c-1.4,1.1-2.7,2.3-3,4.2c-0.2,0.6-0.6,1.2-0.8,1.8c-1.3,5.4-1.3,5.4-6.9,4.3c-2.4-1.5-0.9-4.1-1.7-6.3
			c-2.2,0.4-1.8,2.5-2.7,3.7C477.1,214.6,476.6,215.4,475.7,215.8z"/>
		<path class="st8" d="M619.7,153.8c9.5,5.6,17.8,12.7,25.1,21c-5.7,2.9-11.8,1.3-17.7,1.1c-3-1.3-5.2-3.5-7-6.2
			c-1.1-1.7-2.2-3.3-4-4.3c-2.2-2.2-4.6-1.3-7.3-1c-2.9,0.4-4.2,1.1-5.2,3.9c-1.3,3.5-7.2,4-9.4,0.7c-1.4-2.1-2.9-2.9-5.3-3
			c-2.3,0-3.9-1.2-5.3-3.2c-2.6-4-6.6-5.8-11.2-6.7c-1.5-0.3-3.2,0.1-4.3-0.9c-3.1-2.7-6.3-3.4-10-1.2c-1.8,1.1-3.6,0-5-1.2
			c-2-1.7-4.4-3-6.5-4.6c-1.2-1.8-0.4-3.4,0.5-5.1c1.2-2.2,2.3-4.4,3.3-6.6c0.4-0.8,0.3-1.7-0.3-2.3c-0.8-0.8-1.5-0.1-2.1,0.5
			c-2.9,2.4-5.6,4.5-8.1-0.5c-0.6-1.3-2.3-1-3.6-1.1c-1.6-0.1-3.4,0.2-4.6-1.3c5.8-1.9,11.8-1,17.6-0.8c11.4,0.4,22.6,2.2,33.5,5.8
			c1.3,4.9,3.5,8.8,8.5,11.3c3.1,1.5,6.2,4.6,1.8,8.6c-1.2,1-0.1,2.1,1.2,3.4c-0.6-4.1,1.9-4.4,4.5-4.5c2.2-0.1,4.2,0,4.7-3.1
			c0.4-2.1,2.8-2.2,4.1-1.3C611.3,153.9,615.5,153.4,619.7,153.8z"/>
		<path class="st9" d="M475.7,182.8c-1.5,0.6-3,1.6-4.6,1.9c-3.3,0.6-5.9,0.3-5.5-4.4c0.3-3.5,0.8-7.6-5.4-5.6
			c-2.5,0.8-4.3-2.5-7-3.1c-1.5-0.3-0.2-4.5-0.6-7c0.3-0.3,0.7-0.6,1-0.9c6.4,0.5,9.5-5.9,15.1-7.4c3.5-0.9,6.3-1.1,9.5,0.6
			c2.5,1.4,4.9,3.5,8.3,2.3c1.4-0.5,2.7,0.5,2.9,2c0.7,5.1,3.6,4.7,7.2,3.3c0.6-0.3,1.3-0.2,1.9,0.1c1.1,1.1,2.4,1.5,4,1.2
			c1.6-0.3,3.3-0.3,4.9-0.2c2.7,0.2,5.1,1.1,4.8,4.4c-0.3,3.4-2.9,2.9-5.3,2.3c-0.4-0.1-0.9-0.4-1.3,0.1c2.6,2,6.8-0.2,8.7,2.5
			c1.5,2.2-0.3,5.8,2,8.3c3.4,0.6,6.5,1.7,8.9,4.3c1.6,1.4,3.9,2.5,2.7,5.4c-0.7,0.8-1.6,1.1-2.7,1c0.7,0.9,1.7,0.7,2.5,1.2
			c2.3,1.5,2.6,3.7,2.1,6.1c-0.5,2.3-2.5,2.8-4.6,2.9c-2.1,0.1-3.9-0.5-5.6-1.7c-0.4-0.2-0.8-0.4-1.1-0.6c-1.2-1-2.6-0.9-4-0.5
			c-0.5,0-0.9-0.2-1.2-0.4c-0.9-0.8-1.7-1.5-3-1.6c-3-0.2-5.7-0.2-4.4-4.9c0.5-2-2.9-3.2-3.8-5.4c-1.3-2.9-3.6-1.2-5.6-0.6
			c-2.6,0.8-5.8,1.2-5.4-2.6c0.4-4-2-4.5-4.3-4.2C483.1,182,479.3,181.7,475.7,182.8z"/>
		<path class="st10" d="M422.7,248.8c0,0.8,0.2,1.6,1,2c1.2-1,2.9-0.9,4-2l0,0c4.5-0.9,9.2-0.7,12.4-5c1.1-1.5,3.4-1.2,5.2-0.9
			c5.2,0.9,10.2-0.2,15.3-0.6c3.8-0.3,7.6-0.6,11.1,1.6c0,1.3,0,2.7,0,4c-3.6,4-6.7,9.2-13.5,6.1c-1.1-0.7-2.4-1.6-3.7-0.6
			c-3.3,2.6-6.5,1.5-9.9,0.3c-5.2-1.9-7.3-0.4-7.6,5.4c-0.3,7,0.2,14-0.2,21c-0.1,0.8-0.4,1.5-1,2.2c-6,2-16.1-0.3-20.4-4.8
			c-1.8-1.9-3.9-3.5-6.1-5c-1.2-1.1-2.5-1.9-4.1-2.5c-1.5-0.5-2.7-1.2-1.7-3.1c-0.1-6.7,0-13.4,2-20c2.8,0.3,5.5,0.2,8.2-0.5
			C417.4,245.3,420.3,246.1,422.7,248.8z"/>
		<path class="st11" d="M681.8,289.9c-3.5-0.6-6.8-2.1-10.5-1.8c-1.2,0.1-3-0.5-3.6-1.4c-4.5-6.3-12.6-6.8-18.1-11.4
			c-2.8-2.4-5.4,0.4-7.2,1.9c-2.5,2.1-4.1,4.6-6.9,0.7c-0.5-0.7-1.1-0.6-1.5,0.1c-0.5,0.8,0,2.8-1.8,2.3c-1.5-0.4-1-2.2-1.5-3.4
			c-1.6-3.6-1.8-7.9-5.9-10.3c-0.4-0.3-2-4.5-1.6-5.8c1.2-3.4-1.9-4.6-2.4-6.9c0.2-0.2,0.4-0.4,0.6-0.5c0.7-0.4,1.5-0.4,2.3-0.4
			c3.4,0.7,5.3,3.9,8.3,5.3c1.3,0.6,1.1,1.9,0.9,3.1c-0.2,1.3-0.5,2.7,0.1,3.9c0.7,1.3,1.5,3,3.1,2.8c1.9-0.2,1.7-2.2,1.9-3.6
			c0.3-2.3-1.2-5.4,2.1-6.5c3.4-1.1,6,0,8.9,2.6c3.9,3.6,9.1,2.3,13.6,0.7c2.4-0.9,4.6-1.8,7.2-1.8c2.5,0.1,4.5,0.8,5.5,3.4
			c1.2,3,4.1,4.8,5.9,7.8c1-3.2-0.7-6.5,1.7-9c1.7,7,1,14.1-0.1,21.1C680.1,284.9,683.3,287.7,681.8,289.9L681.8,289.9z"/>
		<path class="st12" d="M682.7,261.8c0,3.7,0,7.5,0,11.2c-3.3-3.5-7.7-5.5-9.1-10.1c-0.7-2.3-6.4-3.2-9-1.1c-4.7,3.8-9.9,1.4-14.8,2
			c-1.1,0.1-1.8-0.7-2.1-1.7c-1.1-4.2-4.5-3.6-7.3-3c-3.1,0.7-0.9,3.1-0.9,4.9c-0.1,1.6-0.4,3.3-1,4.8c-0.8,2.2-2.5,2.8-4.2,0.9
			c-2.7-2.9-5.8-5.9-1.1-10.9c-5.8,1.2-6.3-4.9-10.5-5c-1.9-2.6-2.2-5.8-0.1-7.7c2.7-2.4,6.6-1.8,9.9-0.8c2.1,0.7,3.8,1.8,5.8,0
			c2.8-1,4.3,0.4,5.5,2.7c3.6,6.6,5.1,6.4,12.3,6.2c5.6-0.1,11.1-3.1,17-0.6c-0.3-1.3-1-2.8-0.7-4.2c1.3-4.8-1.8-6.4-5.4-7.6
			c-1.8-0.6-3.9-1-2.1-3.6c0.9-1.4-0.5-1.6-1.1-2.2c-1.7-1.8-1.5-3.7,0.2-5.2c1.7-1.5,3.7-1.4,5.3,0.4c2,2.2,3.8,4.4,7,2.1
			c0.4-0.3,0.8-0.5,1.2-0.6C681,242.1,682.6,251.8,682.7,261.8z"/>
		<path class="st13" d="M487.6,142.8c13.4-6.2,27.3-10,42.1-10.9c2,1.7,3,3.9,3.8,6.3c1.2,3.6,0.3,5.2-3.5,5.9
			c-1.4,0.3-3.3-0.4-3.4,1.8c-0.1,2.2,1.1,3.7,3.1,4.6c3.7,1.7,7.4,1.3,11.1,0.5c0.5,0.1,0.9,0.2,1.3,0.4c3.7,2,7.5,3.6,11.8,3.2
			c3.6-0.8,4.5,1.2,4.5,4.2c-0.4,1.4-1.5,1.9-2.8,1.9c-1.8-0.1-3,1-4.2,2.1c-1.3,1.2-2.7,2.4-4.7,1.2c-1-2.8-3.5-1.3-5.4-1.9
			c-2.2-1.3-5.3-1.3-6.1-4.5c-6,4.8-15,4-20.3-1.8c-3-3.3-6.1-6-11-5.7c-1.6,0.1-2.7-1-4-1.9c-2.3-1.5-4.6-2.3-7.5-1.3
			C488.5,148.5,487.3,146.4,487.6,142.8z"/>
		<path class="st14" d="M658.8,349.9c-4.8,8.1-10.9,15-18,21.1c-2.7-3.8-7.1-5.1-10.6-7.8c-1-0.6-1.8-1.9-2.9-1.8
			c-5.3,0.5-7.3-2.5-9.2-6.9c-0.9-2.1-1.5-3.1,0-5c1.6-2,2-4-0.5-6c-3.6-2.9-3.4-5,0.4-7.6c1.5-1,3-2,4.9-2.4c1-0.2,2-0.2,3-0.5
			c7.4-1.9,7.4-1.9,9.5,5.3c0.3,1,0.6,2,1.5,2.5c5.4,2.8,10.5,6.4,17.1,6C655.9,346.8,659.5,345.2,658.8,349.9z"/>
		<path class="st15" d="M658.8,349.9c-0.5-2.8-2.5-2.2-4.2-1.9c-8,1.7-13.6-3.7-20-6.7c-1.6-0.7-0.8-3.1-0.7-4.7
			c0.2-4-1.9-4.9-4.9-3.2c-2.1,1.2-4,1.3-6.2,1.3c-0.5-4.8-6.2-6-7.2-10.6c-0.2-0.9-1.7-0.9-2.6-0.3c-1.1,0.7-1.4,1.8-1.1,3.1
			c0.5,1.9,2.2,2.9,3.6,3.9c1.6,1.2,3.8,2.2,2.1,4.6c-1.5,2.2-3.7,4-6.3,2.2c-2.6-1.8-4.7-2-7.3-0.6c-0.9,0.5-2,0.6-2.9,0
			c-1.3-0.9-2.2-1.2-3,0.6c-0.5,1.2-1.6,2.4-3.1,1.9c-1.5-0.5-1.4-2.1-1.5-3.4c-0.1-1.2-0.1-2.3,0.2-3.5c0.1-0.5,0.3-0.9,0.6-1.3
			c2.3-1.8,5.1-2.1,7.9-2.1c1.3,0,1.3-0.2,0.2-0.8c2.9-5.6,7.1-9.8,13.4-11.5c3.4,0.7,6.7,2.5,9.6-1.9c1.8-2.6,4.3-0.2,4.6,1.8
			c0.4,2.6,1.3,4.1,3.5,5.4c1.5,0.9,1.3,2.9,1.6,4.5c0.4,2.4,1.6,4.3,4.1,4.2c4.5-0.2,8.8,2,13.2,0.6c1.1-0.4,2.3,0,3.2,0.9
			c3.5,3.7,7.9,1.3,11.9,2C665.3,340.3,662.6,345.4,658.8,349.9z"/>
		<path class="st16" d="M625.7,174.8c6.4,0,12.7,0,19.1,0c10.1,9.9,17.9,21.3,23.9,34c-1.5,1.1-1.5,2.9-2.2,4.4
			c-2.3,4.3-8.1,4.4-10.5,0.2c-1.1-1.9-1.7-4-4.1-4.8c-0.6-0.3,0,0.2-0.4-0.2c-4.3-4.4-9.4-7-15.6-7.1c-1.9-2-0.9-3.9,0.1-5.9
			c2.4-5,1.9-7.5-2.8-10.5c-2.6-1.7-4.4-4.1-6.5-6.1C625.6,177.7,624.6,176.5,625.7,174.8z"/>
		<path class="st17" d="M487.6,142.8c1.2,2.8,2.2,5.1,6.2,2.4c2.6-1.7,5.4,1,7.5,2.5c1.3,0.9,2.1,1.5,3.8,1.3
			c4.4-0.7,7.4,1.9,9.7,5.1c2.5,3.4,10.3,6.1,14.6,5.9c3.7-0.2,3.3-5,6.1-4.7c2,0.3,0.7,5.4,4.8,4.7c0.9-0.2,1.2,1,1.3,1.8
			c-3.6,1.1-0.1,4.7-2.2,6.3c-3.1,0.5-5-2.3-7.7-2.7c-1.1-0.8-2.2-1.2-3.7-0.9c-4.4,0.7-8.3-0.1-11.1-3.9c-1.5-2-3.1-2-5.1-0.8
			c-3.1,1.8-6.1,1.2-7.6-2.1c-1.8-4-4.5-4.5-8.2-2.6c4.5,1.8,4.5,5.3,3.1,9.2c-0.2,0.2-0.3,0.3-0.5,0.5c-1.3,0-1.9,1.3-2.9,1.7
			c-3.9,1.6-6.4,0.1-7.1-4c-0.2-1.1-0.5-3.2-1.6-2.3c-4.7,3.7-6.9-1.9-10.4-2.6c-2.9-0.6-12.2-0.2-13.3,2.4
			c-2.2,5.2-5.7,4.7-9.8,3.6C463.7,154.7,475.1,147.8,487.6,142.8z"/>
		<path class="st18" d="M403.7,266.7c0.2,2,1.7,2.2,3.2,2.1c2.2-0.1,2.9,1,2.8,3c-0.1,4.7,2.1,6.9,6.8,7.8c4.9,0.9,6.8,3.9,6.7,8.9
			c2.7-1.6,3.3-5.6,7.4-5.9c4.3-0.2,4.8,0.1,3.2,4.6c-0.2,0.4-0.5,0.7-0.8,1c-1,1.1-1.1,1.9,0.6,2.3c0.9,0.2,1.8,0.4,2.4,1.3
			c-1.7,3.2,1.3,6.7-0.3,9.9c-2.4,6.2-5.3,6.7-12,1.7c-1.3-0.9-1.9-3.9-3.9-1.5c-2.5,2.9,2.6,2,2.4,4.4c-2.3,0.5-4.6,0.9-6.9-0.6
			c-3.1-2-5.3-1.3-6.6,2.1c-3.2-8.4-4.3-17.3-4.8-26.1C403.6,276.8,401.4,271.8,403.7,266.7z"/>
		<path class="st19" d="M541.7,151.8c-4.1,1.4-8.1,1.4-12.4,0.1c-3.6-1.1-4.3-3.9-4.4-6.7c0-1.7,1.3-4.2,4-2.5
			c1.9,1.2,2.8-0.4,3.8-1.2c1.4-1.1-0.4-1.9-0.5-2.9c-0.3-2.5-2.7-4.1-2.6-6.8c0.6,0,1.3-0.1,1.9-0.1c2.3,0,4.6,0,6.9,0.1
			c1.3,0,2.8-0.1,3,1.7c0.7,6.4,3.5,0.3,5.2,0.9c0.1-2.9,2.2-3.5,3.9-2.2c1.9,1.4,2,3.6,0.6,6.1c-1.7,3-4.3,5.7-4.6,9.4
			C545.4,149.6,543.1,150.1,541.7,151.8z"/>
		<path class="st20" d="M619.7,153.8c-3.9,1.1-7.6,2.5-11.4-1c-2.4-2.2-3.5-1.3-3.3,1.9c0.1,1.8-0.9,2-2,2.1c-1.5,0.1-3,0-4.5,0.1
			c-1.2,0.1-2.9-0.5-3.4,1.2c-0.5,1.7,1.8,1.6,2.5,3.1c-3.3,1.6-5.2-0.6-6.7-2.5c-1.7-2.2,1-2.6,2.1-3.6c1.5-1.3,2.1-2.4,0-3.8
			c-1.3-0.9-2.2-2.8-3.6-3.3c-5.6-1.8-7.3-5.7-6.6-11.2C596.1,140.2,608.4,145.9,619.7,153.8z"/>
		<path class="st21" d="M411.9,222.9c1.9,1.3,4.3,1,6.3,2.7c2.1,1.8,3.4-0.7,4.4-2.2c0.6-0.9-0.6-3.1,1.5-3c1.5,0.1,2.8,1.6,3.1,3
			c0.9,4.6,2.7,5.9,6.4,2.3c0.7-0.7,1.9-0.3,1.8,0.6c0,2.2,1.4,4.7-1.1,6.4c-0.8,0.5-2,0.2-2.9,0.6c-0.5,0.2-1.2,0.8-1.3,1.3
			c-0.1,1.1,0.8,1.2,1.7,1.3c1.3,0.2,3.6-0.7,3.5,1.6c-0.1,2.1-2.3,1.1-3.6,1.4c-1.3,0.9-2.7,1.1-4,0c-3.7,3.2-6.6-1.2-10-1v0
			c-0.8-1.6-1.9-2.2-3.6-1.2c-2.1,1.3-4.4,1.3-6.7,1.1C408.6,232.7,409.6,227.6,411.9,222.9z"/>
		<path class="st1" d="M491.7,400.9c-0.1-0.7,0-1.4-0.2-2c-0.7-1.5-3.8-1.7-2.4-4.1c1.2-2.2,3.6-2.1,5.8-2c2.7,0.2,5.6-1,7.7,2
			c1.2,1.7,2.9,0.4,3.8-0.8c1.1-1.4,2.5-2.1,3.8-3.1c3-2,5.1-2.8,4.6,2.3c-0.2,2,1.1,2.6,2.8,2.6c0.9,0,1.8,0.3,1.6,1.4
			c-0.1,0.9-0.9,1.4-1.8,1.5c-2.3,0.1-4.7,0-7,0.2c-2.9,0.1-4.7,1.2-2.7,4.3c1,1.6,0.9,2.4-1,2.7
			C501.4,405.1,496.4,403.5,491.7,400.9z"/>
		<path class="st22" d="M652.7,207.8c2.3,0,3,1.8,3.7,3.5c0.8,2.1,1.1,4.7,4.5,4c2.7-0.5,5.3-0.9,5-4.7c-0.1-1.8,0.9-2.8,2.9-1.8
			c4,7.6,7.3,15.4,9.1,23.9c0,0.4-0.1,0.7-0.1,1.1c-1.6,0.6-3.3,0.3-4-0.9c-2-3.4-6.9-3.2-8.3-7.3c-0.5-1.4-1.7-0.2-2.5,0.1
			c-1.8,0.7-2.8,0-3.2-1.8c-0.5-4.5-4.8-6.9-5.9-11.1C653.4,211.2,651.9,209.8,652.7,207.8z"/>
		<path class="st18" d="M410.8,315.8c1.3-0.7,3-1,3.6-2.5c1.8-4.6,4.5-1.9,6.7-0.7c3.4,1.8,0.1,3.4-0.6,4.7c-1.5,2.7-3.8,5,1.6,5.7
			c2.7,0.4,0.7,2.3,0.7,3.5c0,2.4-1.4,1.6-2.6,1c-1.6-0.7-3.1-1.3-4.4,0.4C413.3,324.2,411.9,320.1,410.8,315.8z"/>
		<path class="st2" d="M630.7,362.8c3.3,2.8,9.8,1.7,10.1,8.3c-2.1,2.6-4.3,4.9-7.1,6.7l0-0.1c-0.7-1.7-1.1-3.4-0.1-5.2
			c1.8-3.2,0.3-4.3-2.8-4c-2.2,0.3-4.3,0.5-6.1-1.2c-1.2-1.1-2.7-2.2-1.7-4.2c1-1.9,2.7-2.4,4.6-1.8
			C628.7,361.7,629.8,362.1,630.7,362.8z"/>
		<path class="st23" d="M422.7,248.8c-3.8-1.9-7.7-2.1-11.7-0.6c-2,0.7-3.8-0.1-5.3-1.4c0-0.3,0-0.6,0.1-1c4.9-1.1,9.5-2.4,14.8-1.8
			C425.6,244.5,424.3,246.2,422.7,248.8z"/>
		<path class="st0" d="M681.7,289.9c0.6-2.3-4.7-5.4,0.9-7C682.5,285.2,683.3,287.7,681.7,289.9z"/>
		<path class="st23" d="M471.7,243.8c-6.6,0.4-13.3-1.5-20,1.5c-1.7,0.8-4.9-1.6-7.7-1.4c-1.3,0.1-2.9-0.3-3.7,0.9
			c-3.2,4.6-7.6,5.1-12.6,4c1.8-1.4,5.1-1,5.5-4.3c0-0.2,0.7-0.5,0.8-0.5c4.7,3.5,3.6-4,6.9-3.7c1,0.1,0.4-1.7-0.4-2.3
			c-3.2-2.5-0.7-4.6,0.6-6.3c2-2.5,3.2,0.1,4.7,1.3c2.2,1.8,3.7,2.8,6.7-0.1c2.3-2.2,5.3-5.4,10.8-3.6c3.5,1.2,8.4-0.2,12.6,1.5
			c0.9,0.4-0.6-2.6,2-3.4c2.9-0.8,6-1.6,8.9-2.8c1.6-10.4,2.9-11.5,13.6-10.1c3.5,0.5,7.3,0.3,10.2,3.4c1.7,1.7,2.6,0,3.1-1.5
			c0.9-3.1,3.1-4.1,6.2-3.7c1.5,0.2,3,0,4.4-0.5c2.7-0.9,4.9-0.6,5.9,2.6c0.6,2,2.6,2.4,4.2,3.2c3,1.6,6.7,2.4,7.8,6.4
			c-2.5,2.8-5.4,2.9-8.5,1c-2-1.2-4.2-2-6.4-2.7c-5.2-1.7-6.3-0.8-8.2,4.3c-0.8,2.1-0.1,2.6,1.3,3.3c2.4,1.2,5.1,1.4,7.6,2.3
			c2.7,0.9,3,2.5,0.8,4.3c-2.4,1.9-5,3-8.3,2.5c-2.1-0.3-4.3-1.3-6.5,0c2,0.8,4.1-0.2,6.1,0.1c1.9,0.4,3.8,0.9,3.8,3.2
			c-0.1,2.4-2.3,1.8-3.8,2c-2.4,0.3-5-0.8-7.2,1c-9.9,0-19.8-0.4-29.7,0.2c-5.9,0.3-8-1.6-7.3-7.2c0-0.9,3.5-1.1,0.5-2.5
			c-2.7-1.3-5.5-1.5-8.7-0.6c1.3,2.1,2.8,1.4,4.1,1.4c1.6,0,3.7-1,4.1,1.8C472.4,238.9,473,242.1,471.7,243.8z"/>
		<path class="st24" d="M541.7,224.8c-2-2.6-4.9-3.8-7.6-5.3c-2.4-1.3-6.4-0.7-5.7-5.5c0.2-1.3-2-1.5-2.8-0.9
			c-2.4,1.9-4.7,1.5-7.5,0.9c-2.6-0.6-3.2,1.5-3.4,3.7c-0.3,2.8-4.2,4.5-5,2.5c-1.5-4.2-4.9-2.9-7.6-3.8c-2.3-0.8-4.6-0.4-6.9-0.6
			c-4.4-0.5-7.2,0.6-6.5,5.9c0.2,1.5-0.6,2.5-2,3.2c-1.9-2.3-4.5-2-7-2c2.7-4.6-2.3-4.9-4-7v0c0-0.8,0.2-1.6,1-2
			c2.7-1.9,3.7,0.4,5,2c2,0,3.9,0,6.3,0c-3-2.6,0.2-4.1,0.7-6c0.8-1.5,2.1-2.6,3-4c0.9-1.6,2.4-2.9,2-5c-0.4-2.4,2.2-1.8,3-3
			c2.3,0,2.5-3.4,5-3c2.9,5,8.5,4.4,13,6c1.3-0.9,2.7-0.7,4,0l0,0c1.7,4.5,6,6.6,9.8,7.7c4.6,1.3,9.2,3.7,14.3,3.3
			c1.8-0.1,4.3-0.5,3.8,2.9c-0.3,2,1.6,1.8,2.8,1.8c7.5-0.1,14.6,2.9,22,3.5c2.8,0.2,5.6,1.7,6.6,4.7c1.6,4.7,5.2,5.8,9.4,5.5
			c2-0.1,3.6,0.1,5,1.6c1.8,2,3.8,3.6,6.2,4.9c1,0.5,2.4,1.4,2.3,2.4c-0.2,4.9,3.3,5.4,6.8,6.2c1.3,1.3,2.8,2.2,4.8,2.2
			c3.3,0.1,5.9,2.1,8.4,4.1c0.4,0.8,0.3,1.5-0.2,2.2l0,0c-2.1-0.1-4.3-0.1-6.4-0.6c-3.1-0.7-6.8-1.9-6.8,3.8c0,2.3-2.5,2-3.1,0.7
			c-2.2-4.7-7.3-5.8-10.9-8.5c-4.6-3.6-9.4-7.1-14.5-10.2c-1.2-0.7-2.5-1.4-2.9-2.6c-2.1-6.7-6.8-8.9-13.4-8.6
			c-5.3,0.3-10.6,0.1-16,0.1C545.2,226.5,543,226.5,541.7,224.8z"/>
		<path class="st25" d="M458.7,253.8c6.1,1.8,8.3-4.8,13-6c9,0,18,0,27,0c1.2,1.2,0.8,2.5,0.1,3.7c-2,3.4-0.3,5.6,2.3,7.6
			c3.1,2.4,6.7,4,10.5,4c4.2-0.1,5.7,1.8,6.3,5.4c0.2,1.4,0.1,3.5,2.3,3c1.7-0.4,1.8-2.2,1.4-3.7c-0.5-1.8-1.2-3.7,1.2-4.6
			c2.1-0.8,3.9,0,5.3,1.6c1.2,1.4,2.6,2.6,4.1,3.6c1.7,1,3.1,2.7,4.2-1c1-3.3,4.6-3.3,6.5-0.3c1,1.5,1.2,3.5,2.7,4.7
			c2.6,3,2.5,5.2-1.6,6.7c-2.1,0.8-3.9,2.2-3.5,4.8c0.4,2.7,2.7,3,4.9,3.2c6.6,0.8,6.6,0.8,7.8,7.3c0.2,1.3,0.7,2.6,1.6,3.5
			c0.5,0.9,0.7,2-0.3,2.6c-1.4,0.9-2.5,0-3.5-0.8c-5.1-3.8-6-3.6-8.8,2.5c-3.4,0.6-6.6,1.8-9.8,2.7c-0.5-0.2-0.8-0.5-0.9-1
			c-0.9-5.6-1.6-11.2-1.6-17c0-3.1-3.1-4.9-5.3-7c-1.2-1.6-2.1-0.4-3,0.4c-1.8,1.2-3.7,1.4-5.8,0.8c-2.2-2.4-3.8-5.2-7.9-5.3
			c-2.5,0-4.5-2.7-6.1-4.8c-2.3-3.2-5.2-3.5-8.3-1.9c-6.8,3.5-14.3,1.8-21.4,3.1c-4.8,0.8-7.1-2.9-5.5-7.8c0.9-2.7,0-3.4-2.3-4.2
			C461.4,258.9,458.6,257.6,458.7,253.8z"/>
		<path class="st26" d="M544.7,271.8c-2.5-0.1-1.8-2.4-2.4-3.8c-0.7-1.5-1.6-2.6-3.4-2.1c-1.8,0.5-2,1.4-1.3,3.4
			c1.1,3.4-1.4,2.6-3,1.8c-2.8-1.4-5.6-3-7.4-5.6c-1.2-1.7-2.7-2.2-4.3-1.4c-2.3,1.2-0.1,2.3,0.4,3.5c1,2-0.5,3.4-1.5,4.9
			c-0.9,1.4-2.2,1.6-3.5,1c-1.9-0.8-1.5-2.7-1.7-4.3c-0.3-3.3-0.4-5.9-5.6-4.3c-2.5,0.8-6.3-2.2-9.5-3.7c-6.6-3.2-5.3-8.2-2.9-13.4
			c2.7-2.2,4.5-0.9,6,1.6c1.4,2.2,2.8,3.3,5,0.9c0.8-0.9,1.7-1.7,3-0.8c3.3,2.1,6.8,1.9,10.4,1.4c1.3-0.2,2.8-0.2,3.8,0.9
			c1.9,2.2,4.4,2.6,6.8,2c6.1-1.5,8.4,2.2,9.8,7c0.4,1.5,0.3,3.1,2.4,2.9c1.8-0.1,2.5-1.4,2.7-3c0.1-1,0.4-2.2,1.5-2.4
			c1.8-0.3,1.6,1.4,1.9,2.4c0.8,2.8,2.3,4,5.1,2.6c5-2.5,8.8-1.7,11.5,3.2c2.3,4.3,4.3,7.7,10.1,7.6c2.4,0,4.7,4.3,7.5,0.3
			c0.5,0.4,0.9,0.9,1.4,1.3c3.3,2.3,6.4,4.4,10.7,1.5c2-1.3,5.2-1.4,6.4,2.4c0.4,1.2,1.5,2.1,2.3,3.2c0.8,1.2,2.5,2.7,2.2,3.8
			c-1.1,4.7-1.2,7.4,4.7,9.8c3.1,1.2,6,6,9.7,8.3c-3.5,2.4-6.3,0.9-8.7-1.7c-2.2-2.3-4.1-3.7-7.2-1.2c-2.5,1.9-4.6-0.6-6.9-1.2
			c-1.5-0.7-2.9-1.6-4.1-2.8c-1.9-1.9-3.6-3.9,0.2-5.7c1.8-0.9,2.6-2.5,2.3-4.6c-0.3-2.2-2-2.8-3.8-3.4c-4.6-1.4-9.1-3.3-13.1,1.6
			c-1.6,1.9-4.5,1.1-4.3-1.3c0.5-4.3-2.8-4.4-4.9-5.9c-1.8-0.8-3.9-0.4-5.5-1.5c-1.2-2.5-2.5-4.2-6-3.7c-3.4,0.5-6.9-1-9.9-2.6
			C549,269.4,546.8,269.6,544.7,271.8z"/>
		<path class="st27" d="M600.7,299.8c2.9-0.2,5.9,3.5,8.8-0.8c0.7-1,3.9-0.7,5,1.6c2,3.9,5.3,4.6,9.1,4.2c1.7,1.1,3.2,2.4,5.4,2.1
			c0.6-0.1,1.8,0.3,1.8,0.5c0.4,6.8,7.1,5.2,10.5,8c1.3,1.1,5.9,1.6,2.3,5.2c-0.9,0.9-0.2,1.6,0.6,1.9c1.1,0.5,1.7,0,2.3-1
			c2.7-4.8,4.1-4.7,7.3-0.3c2.6,3.7,3.5,7.4,1.8,11.7c-4.9,1.8-9.9-0.3-14.8,0c-4.8,0.3-7.1-1.8-7.2-6.5c0-1.3,0.4-2.8-1.3-3.4
			c-2.5-0.9-5-1.6-3-5.2c0.4-0.8-1-2-2.2-2.4c-0.8-0.3-1.1,0.3-1.4,0.9c-2.5,4.4-5.2,4.8-10.1,1.6c-3.3-0.6-5.7-2.1-6-5.7
			c0.2-2.3-0.7-3.5-3.1-4.3C603.1,306.5,600.5,304.1,600.7,299.8z"/>
		<path class="st28" d="M541.7,224.8c2.4-0.2,4,1,5,3c-2.5,0-5,0-7.5,0c-0.8,0-1.8-0.1-2,1c-0.2,1,0.6,1.5,1.4,1.7
			c1.1,0.4,2.1,0.6,3.2,1.2c6.1,3.7,6.6,9.5,1.1,14.1c-1.9,1.6-1.1,2.4,0.8,2.8c1.1,0.2,2,0.7,1.2,2c-0.4,0.7-1.6,1.4-2.1,0.8
			c-3.7-4-9.5-1-12.9-3.2c-5.7-3.6-11.5-2-17.2-2.6c1.4-3.8,4.6-1.3,6.9-2c1.1-0.4,3.1,0.8,3.2-1.1c0.1-2-1.9-1.9-3.4-1.9
			c-1.5,0.1-3-0.4-4.3,0.7c-0.9,0.8-1.9,1.8-2.9,0.5c-0.9-1.3-0.7-2.9,0.2-4.2c0.7-1,1.3-1.2,2.8-0.6c4.9,1.7,9.9,2.5,14.1-2.6
			c-3.9-1.5-8.4-1.3-11.8-3.9c-1.1-0.8-4.6-1.8-0.2-3c0.8-0.2,1-0.8,0.8-1.5c-1.5-5.9,2.6-5.2,6.1-5.3c3.1-0.1,6.8,1.2,8.2,2.7
			C535.8,226.7,538.6,225,541.7,224.8z"/>
		<path class="st29" d="M630.7,362.8c-0.5,0-1-0.1-1.5,0c-1.8,0.2-3.8-1.9-5.4,0.5c-0.8,1.2-0.2,1.7,0.6,2.4
			c1.9,1.8,3.8,2.8,6.6,1.4c2.2-1.2,5.8,1.6,5.5,4c-0.1,0.5-0.5,1.4-0.9,1.5c-2.7,1-1.5,3.3-1.9,5.1c-2.1-2.1-3.3-5.1-5.9-6.6
			c-1.2-0.7-3-1.4-4.1,0c-1.4,1.7,1,1.5,1.5,2.2c0.5,0.6,0.5,1.3,0.1,1.8c-0.7,0.8-1.8,0.7-2.8,0.5c-1.2-0.2-1.6-1-1.6-2.1
			c0-3.6,0-7.2,0-11.9c-2.8,3-2.4,6-2.9,8.5c-0.4,1.9-1.2,3.2-3,3.2c-1.7,0-2.1-1.5-2-2.8c0.1-2-1.1-3.5-2.5-4c-2.6-1-2.5-3.2-3-5.1
			c-2.2,0-1.4,1.6-1.6,2.5c-0.4,2.2-2.1,2.1-3.5,1.6c-2-0.6-1.5-1.8-0.3-2.9c0.6-0.6,0.9-1.4,0.3-2.2c-0.6-0.7-1.7-0.9-2.2-0.4
			c-4.4,4.1-7.9,0.6-12.1-1.2c1.6-1.5,3.3-0.9,4.8-1c0.8-0.9,0.9-2.3,2-3c-2.8-2.8-7.2-2.3-10-5c-2.4,0.6-4.8-0.2-7.4,0.4
			c-2.4,0.6-4.1-1.3-2.6-3.7c2.5-4-0.2-4.8-2.9-5.3c-3.5-0.6-6-1.4-4.2-5.7c0.3-0.7,0.2-1.3-0.7-1.4c-3.6-0.7-3.1-3.8-3.8-6.7
			c-0.7,2,0.2,4-1.4,5.3c-2.4-0.1-1.5,2.6-3,3.6c-3.4-2.2-1.1-6.1-2.7-9.2c-2.2,1.7-0.4,7.1-5.3,5.7c-3.5,0.2-7.1-0.9-10.6,1.9
			c-0.2-3.4-1.7-5.7-3.4-7.9c1.4-5.1,2.8-5.9,9.2-4.9c5,1.6,9.3-0.6,13.4-7.3c1-1.6,1.7-3.3,3.7-3.7c1.7-0.3,3.4-0.5,4.7,0.9
			c1.1,1.2,0.7,2.4-0.3,3.6c-1.2,1.4-0.1,2.1,0.9,2.7c6.5,4.2,12.1,9.8,19.4,12.9c2.3,1,5.1-0.1,7.1,1.9c0,2,0,4,0,5.8
			c1.3,0.7,1.8-0.1,2.2-0.7c1.2-1.9,0.7-8.7,4.7-1.4c0.1,0.2,1.3,0.1,1.8-0.2c2.9-1.8,5.4-3.5,8.3,0.6c1.3,1.9,3.7-0.3,4.9-1.7
			c2-2.3-0.7-2.1-1.7-2.8c-1.3-1-2.7-2-3.8-3.2c-1.4-1.4-1.7-3.1-0.6-5c1-2,2.5-2.5,4.5-2.3c2.1,0.2,2.7,1.7,2.7,3.5
			c0,1.4,0.4,3,1.9,3.1c4.8,0.4,4.1,3.2,3.1,6.3c-1.8,1-3.8,1.9-5.5,3.1c-1.7,1.3-2.3,3.1-0.1,4.5c4.8,3,5,6.2,0.2,10
			c2.1,0.5,3.8,1.2,3.4,3.8c-0.5,3.4,1.6,3.9,4.3,3.6C627.6,359.6,629.6,360.4,630.7,362.8z"/>
		<path class="st29" d="M515.7,279.8c2.1,0,4.1,0.2,6-1c1-0.2,2-0.2,3,0c6.7,3.9,8.5,8.2,5.9,15c-0.7,1.8,0,2.6,1,3.3
			c2.9,2.2,2.1,4.4,0.1,6.7c-0.6,2.2-1.2,4.4,0.3,6.6c0.8,1.1,1.1,2.6,0.6,3.8c-1,2.6-0.5,4.5,1.4,6.6c2.1,2.4,1.9,5.2-1.3,7
			c-1.9,2.2-5.7,4-1.6,7.5c0.7,0.6,0.6,1.6-0.3,2.1c-0.6,0.4-1.5,0.4-1.7-0.3c-2.5-6.2-9.8-3.5-13.7-7.3c-1.6-1.6-4.4-2.2-6.7-2.9
			c-2.8-0.9-5.3-2.3-4.8-5.4c0.5-3.1,3.6-1.2,5.5-1.7c0.8-0.2,1.6-0.1,2.7-0.2c-0.9-2.4-2.2-3.1-4.3-1.9c-1.3,0.8-2.6,0.8-3.6-0.4
			c-1-1.1,0-2.1,0.5-3.1c1.5-3.2-0.9-7.2-4.2-7.4c-2.3-0.1-3.7,0.3-3.9,3.1c-0.2,2.6-1.1,5.1-1.7,7.7c-0.4,1.5-1.2,2.4-2.8,2
			c-1.5-0.4-1.5-1.8-1.3-2.9c0.4-2.3,1.3-4.5-1.8-6.4c-0.1,1.8-0.1,3.4-0.3,4.9c-0.2,1.8,0.9,4.3-2.3,4.5c-2.6,0.2-4.7-0.5-5.5-3.2
			c-0.4-1.3-0.3-2.7-2.2-2.8c-3.1-2.9-6.1-6-10.4-7c-1.2-2.2-0.8-4.4-0.1-6.6c0.7-2.1,1.1-4.1,0-6.1c-0.9-5.6-0.2-6.8,5-7.3
			c2.4-0.2,3.9-0.7,3.1-3.6c-0.5-1.7-0.5-3.4,1.6-4c2-0.6,3.5,0.4,4.7,2.1c1.4,2,1.2,4.4,1.6,6.7c0.3,1.4,0.4,3.7,2.1,3.5
			c4-0.4,4.2,2,4,5.4c4.5-2.6,7.9,1,11.9,0.9c-2.6-0.8-4.9-2.1-5.9-4.7c-0.6-1.5-0.8-3,0.4-4.2c1.2-1.2,2.9-1.2,4.1-0.2
			c2.8,2.2,5.3,1.7,8.3,0.1c3.5-1.9,5.5-0.9,6.5,3.2c0.7,2.7,1.7,3.5,4.1,2.1c1.8-1.1,3.8-1.2,5.7-1.7c0.9-0.2,1.5-0.8,1.5-1.7
			c0-0.8-0.5-1.4-1.2-1.3C519.1,289.5,518.6,283.4,515.7,279.8z"/>
		<path class="st30" d="M468.7,306.8c5.6-0.9,8.2,2.5,10,7c-0.9,4.4,0.3,9.8-5.5,12.1c-1.2,0.5-2,2.1-1.1,3.4c1,1.3,0.3,4.6,3.6,3.5
			c0.3-0.5,0.7-0.5,1,0c1.7,0,3.3,0,5,0c1.3-0.9,2.2-0.3,2.6,1c0.5,1.4,0.2,2.8-1.1,3.5c-3,1.7-5.7,4-9.9,1.8
			c-3.7-1.9-8.4-1.9-10.6-6.3c-0.3-1-0.7-2-1-3c-1.7-1.8-0.4-3.7-0.2-5.5c0.2-1.7-0.4-2-1.9-1.5c-1.6,0.2-3.1,0.2-4.4-1
			c-1.1-5.3,0.3-10.3,2.2-15.2c1.3-1,2.8-1.1,4.3-1.2C464.2,305.3,466.7,305.1,468.7,306.8z"/>
		<path class="st5" d="M462.7,332.8c3.6,3.8,9.1,3.5,13.4,6c2.4,1.4,4.6-2,7.1-3c1.1-0.4,0.6-2.7-1.5-3c0.9-4,3.1-3.6,5.8-1.7
			c1.1,0.8,2.3,2.7,3.1-0.2c0.4-1.3-0.5-3.5,1.4-3.8c2.6-0.4,5.8-1,7.7,0.2c2.4,1.6,6,2.1,7,5.5c-2.3,0-4.7,0-7,0
			c-1.9,0-4.1-0.6-3.3,3c0.5,2.6-2.1,1.6-3.6,2c-2.6,0.7-6.8-3.1-7.6,2.2c-0.3,2.2,2.3,3.9,3.3,5.9c1.8,3.6,4.1,0.3,6.1,0.8
			c1.4,0.4,3,0.1,4.5,0.1c1.5,0,2.6,0.5,2.6,2.2c0.1,1.6-0.4,3.6-2,3.5c-3.8-0.2-8.3,2.5-11.4-2c-0.2-0.4-0.9-0.7-1.3-0.6
			c-5.8,1.2-8.4-4.1-12.5-6c-4-1.9-7.2-5-11.5-6.2C459.4,336.7,459.5,334.6,462.7,332.8z"/>
		<path class="st25" d="M532.7,327.8c2.4-3,2.2-5.9-1.1-7.8c-2.1-1.2-2.1-2.1-0.9-3.8c1.5-2.2,1.3-4.2-0.3-6.3
			c-1.9-2.5-1.4-4.6,1.3-6.1c1.7,2,3.6,2.7,6.4,2.2c3.1-0.5,6.6-0.6,7.8,3.7c-1.6,1.8-3.8,0.7-5.7,0.9c-1.8,0.3-4.1,0.2-4.3,2.5
			c-0.2,2.2,2,2.3,3.6,2.7c0.8,0.2,1.6,0.3,2.4,0.7c1.5,1.9,4.5,3,3.8,6.3c-4-0.9-7.1,0.1-9,4C535.4,327.2,534.1,327.5,532.7,327.8z
			"/>
		<path class="st5" d="M476.7,332.8c-0.3,0-0.7,0-1,0c-0.4-3.3,0.2-6.2,2.5-8.7c0.7-0.8,1.5-1.3,2.5-0.5c1,0.8,1,1.7,0.1,2.6
			C478.9,328,477.9,330.5,476.7,332.8z"/>
		<path class="st29" d="M550.7,334.8c0.5,2,6,0.9,3,5C549.6,340,548.6,338.4,550.7,334.8z"/>
		<path class="st31" d="M595.7,367.5c0.3,2.6-1.2,7.3,4.9,3.7c2.5-1.5,6.7,3.2,6.3,6.5c-0.1,0.5-0.2,1-0.1,1.5
			c0.2,2.1,2.5,4.9,0.4,6.3c-3.6,2.4-6.3,6.6-12,5.5c-4.3-0.9-9-0.2-13.5-0.2c-3.3,0-6,0.1-3.2-4.6c0.9-1.5,0.8-3.6,1.9-5.6
			c2.5-4.2,4-1.6,5.8,0c2.4,2.1,4.2,4.7,7.8,5.8c2.6,0.8,4.2,0,5.1-1.4c1.3-2.1-1.3-3-2.6-4c-0.7-0.6-1.9-0.7-2.7-1.2
			c-2.8-1.5-7.2-2.9-0.6-5.5c1-0.4,1.6-1.4,1.1-2.5c-0.7-1.6-1.9-1.1-2.9-0.3c-1.4,1.2-3,1.3-4.7,1.2c-1.6-0.1-4.7,1-2.4-2.8
			c0.8-1.3-0.5-1.9-1.8-2.4c-0.9-0.3-2-1-0.9-2.1c0.8-0.8,1.9-0.9,2.6,0.1C587.7,369.7,591.6,367.2,595.7,367.5z"/>
		<path class="st1" d="M561.7,332.8c-0.1-1.6-0.1-3.3-0.5-4.9c-0.4-1.6,0.1-2.7,1.7-2.9c1.7-0.2,1.6,1.2,1.8,2.3
			c0.4,2.6-1.6,7.4,4.5,5.1c0.9-0.3,1.5,1.1,0.6,2.1c-4.1,4.5-1.6,5.4,2.9,5.2c1.7-0.1,2.7,1.1,3.7,2.2c1.2,1.5,3,3-0.4,4.2
			c-1,0.3-1.4,1.4-0.6,2.4c0.5,0.7,1.4,1.1,2.1,0.5c2.7-2.6,4.8-0.4,7.2,0.6c0.6,1.5,3,2.8,0.8,4.7c-2.1,1.8-1.4,6.4-6.3,5.4
			c-3.8-0.7-8.3-1.2-10.9-3.2c-6.5-5.2-10.4-12-6.7-20.9C561.9,334.9,561.7,333.8,561.7,332.8z"/>
		<path class="st1" d="M594.7,354.8c0,1.5,0,2.9-2,3C591.3,355.5,592.3,354.7,594.7,354.8z"/>
		<path class="st1" d="M524.7,385.8c0.5-2.3,1.3-4.1,4-2C527,383.7,526.1,385.3,524.7,385.8z"/>
		<path class="st25" d="M461.7,306.8c-1.3,0-2.7,0-4,0c-4.4,3.1-5.1,8.3-2,15c1.7,0,3.3,0,5,0c2.4,1.6,1.8,3-0.5,4
			c-2.3,0.9-4.5,0.3-6.5-1c-1,0-2,0-3,0c-0.4-4.6,0.4-9.3-4-13c-2.2-1.9,2.1-2.2,2.1-4c-5.1-2.2-6.7-6.4-4.4-12.2
			c0.8-2,1.7-3.9,2.7-5.8c0.8-1.4,0.4-2.5-0.6-3.6c-0.6-0.6-1.3-1.1-2.1-0.5c-1,0.8-2.9,1.2-2.5,2.8c1.1,4.6-2.2,8.6-1.3,13.1
			c0.4,2,0.6,4.9-2.5,5c-3.7,0.2-1.9-3-2.4-4.8c-0.1-0.9,0-2.1-0.5-2.8c-2.1-2.6-2.1-5,0.5-7.2c-1.4-1.1-4.6-0.7-3-4v0
			c1-1.2,1.8-2.6,3.3-3.3c1.2-0.2,2.4-0.1,3.9-0.6c-1.8-1.1-3.1,0.9-4.5-0.2c-0.3-0.7-0.2-1.3,0.3-1.9c0-0.7,0-1.3,0-2
			c1.4-1,1.6-2.4,1.4-4c-0.2-1.7,0.4-3.1,2.1-3.5c1.8-0.4,3.5,0.4,4,2.2c0.6,2,0.8,3,3.5,2.2c3.4-1,4.2,1,2.8,6.8
			c2,0.6,4.1,0.4,5.5-0.9c1.6-1.6-0.7-2.9-1.3-4.3c-1.7-4.6-2.1-9,0.7-13.3c0.6-1,1.3-2.2,2.5-2.3c5.5-0.3,4.8,5.7,7.7,8.1
			c1.6,1.3-0.1,3.1-1.6,3.9c-2.9,1.4-2.5,3-0.7,5c1.9,2.2,1.6,4.6,0.2,6.9c-1.4,2.2-3.2,3.9-6.2,2.8c-0.6-0.2-0.5-1.1-1.1-1.2
			c0.2,0.2,0.4,0.5,0.6,0.8c-0.3,4,4.1,4.9,5.2,8c0,0.5-0.1,0.9-0.5,1.3c-1,1-3.4,0.2-3.5,2.2c-0.1,1.7,1.7,2.3,2.9,3
			C461.3,304.3,462.9,304.8,461.7,306.8z"/>
		<path class="st5" d="M453.7,324.8c1.8,0,3.6,0.1,5.5,0c2.1-0.1,3.4-0.8,1.5-3c0.6-0.5,1.1-1.5,1.7-1.6c1.2,0,0.9,0.9,0.7,1.8
			c-0.5,2.6-1,5.2-1.4,7.8c-1.2,0.9-2.2,2.1-3.5,2.6c-1.8,0.7-3.7,0-3-2.2C456.1,327.7,454.6,326.5,453.7,324.8z"/>
		<path class="st23" d="M475.7,215.8c0.9,0.2,2,0.2,2.8,0.5c5.4,2.6,5.4,2.6,1.2,6.5c-5,0.1-8.7-4.9-14.1-3.3
			C469.1,218.2,473.5,220.2,475.7,215.8z"/>
		<path class="st23" d="M417.7,237.8c0,3.7-2.1,3.2-4.8,2.4C414.2,238,415.9,237.8,417.7,237.8L417.7,237.8z"/>
		<path class="st23" d="M427.7,238.8c1.3,0,2.7,0,4,0C430.4,240.8,429.1,242.2,427.7,238.8z"/>
		<path class="st23" d="M427.7,248.8c-0.8,1.8-2.3,2.1-4,2C424.5,249,426,248.7,427.7,248.8z"/>
		<path class="st32" d="M514.7,200.8c0.3,2.7-2.5,2.9-2.7,1.8c-0.9-4-3-2-5.1-1.8c-4.2,0.3-3.8-3.6-5.2-5.9
			c-2.5-3.1-4.9-4.9-9.7-4.7c-3.5,0.2-7-3.5-11.4-3.5c-0.5,0-1.8-4.2-4.9-3.9c0.2-0.5,0.3-1.3,0.5-1.3c3.7-0.6,7.5-1.6,11.3-1.3
			c2.2,0.2,6.8-0.2,4.5,5.3c-1,2.5,1.9,2.8,3.6,1.8c4.1-2.3,7.4-3.3,8.5,2.9c0.1,0.4,0.6,1,0.9,1.1c5.4,0.7,2.9,3.5,1,6
			C509.3,198.4,513.4,196.6,514.7,200.8z"/>
		<path class="st32" d="M483.7,196.4c0,2.4,0.1,4,0,5.7c-0.1,2.3-2,3-3.7,3.5c-1.7,0.5-3.7-0.2-4-2c-0.5-2.8-2.3-2.6-4.4-2.7
			c-2.5-0.2-2.2,1.4-2.6,3.1c-0.8,3-3.5,1.8-5.5,1.9c-1.3,0.1-2.9,0.1-3.1-1.6c-0.1-1.1,0.2-3,1.2-3c3.8,0.1,4.8-3.5,7.3-5.2
			c2.4-1.7,5.1-3,7.1-5.3c1.6-1.8,4.2-1.3,6-0.4C485,191.7,483.1,194.8,483.7,196.4z"/>
		<path class="st4" d="M496.7,197.8c-1,1-2,2-3,3c-2.2-0.4-2.8-3.8-6-2.9c-1.2,0.3-2.3-2.1-1.8-3.9c0.4-1.5,1.4-2.3,3-1.6
			c1.4,0.6,2.5-0.2,3.8-0.4c1.6-0.3,2.3,0.6,1.2,2C489.7,199.2,494.8,197.3,496.7,197.8z"/>
		<path class="st4" d="M481.7,215.8c-1.6-0.9-2.9-2.4-5-2c0.2-1.1,0.2-2.3,0.5-3.4c0.4-1.6,1.6-2.8,3.2-2.4c1.8,0.4,2.2,1.9,1.4,3.5
			C480.9,213,481.6,214.4,481.7,215.8z"/>
		<path class="st4" d="M491.7,205.8c-0.1,2-1.4,3.1-3,4C488.3,207.5,489.9,206.6,491.7,205.8z"/>
		<path class="st33" d="M625.7,174.8c1.7,4,4.9,6.6,8.3,9c5,3.5,6.6,7.1,3.1,11.9c-1.2,1.6-1.5,3.2-1.4,5.1c-3,1.1-4.5-2.1-7.1-2.5
			c-1.2-0.2-2.2-1.5-3.5-1.7c-4.9-0.6-6.4-3.4-5.1-8.2c-3.2,0.8-6.1,0.8-9.1,0.6c-0.7-0.1-1.4-0.3-2.1-0.6c-3.2-4-8.8-5.9-9.9-12.3
			c-1.6,5.9-2.6,6.3-6.2,2.6c-3.4-3.5-7.6-2.5-11.6-2.7c-1.3,0-2.6-0.2-3.7-0.9c-1.7-1.9-3.8-1.6-6-1.4c-3,0.3-5-0.9-5-4.1
			c0-3.6-2-4.9-5.2-5.4c-1.8-0.3-3.6-0.7-5.2-1.5c-1.2-0.6-2.4-1.3-1.4-3c1.1,0,2.3,0.2,3-1c4.7-0.9,9.5-0.6,14.3-1.2
			c1.5-0.2,3.1,0.4,4.1,1.5c3.4,4,8.3,5.2,12.9,7.2c1.1,0.5,2.4,0.9,2.9,1.8c2.5,4.4,7.4,1.9,10.8,3.7c1.2,0.7,1.4-0.9,1.7-1.8
			c2.1-6.6,5.2-7.9,12.3-5.3C621.5,166.6,622.2,172,625.7,174.8z"/>
		<path class="st34" d="M616.7,164.8c-1.3,0-2.7,0.2-4,0c-5.1-0.7-7.5,1.2-7.1,6.6c0.3,3.4-1.1,4.5-4,2c-0.5-0.4-1.2-1.3-1.6-1.1
			c-5.6,2.4-8.2-2.8-11.9-4.8c-4.4-2.4-10.2-2.3-13.2-7.5c-1.2-2.1-4.4-1.4-6.5-0.7c-3.7,1.1-7.2,0.7-10.7-0.3c-0.5-2-0.6-4.8-4-3
			c-3.5-2.9-8.1-2.2-12-4c-0.2-3.7,2.9-3.3,5-4c1.9,0.5,3.8,0.8,5.3,2.4c2.3,2.5,4.8,4.8,8.1,1.1c0.8-0.9,2.3-0.7,3.3-0.1
			c5.8,3.7,13.3,3.3,18.8,7.8c0.9,0.7,2.3,0.9,2.4,2.3c0.3,4,3.2,3.6,5.8,3.5c2.3-0.1,4.2-0.1,4.5,3.1c0.3,3,3.1,1.6,4.8,1.9
			c2.1,0.3,3-0.8,3-2.9c0-3.2,1.2-4.8,4.6-3.4c0.6,0.3,1.8,0.1,2.3-0.4C612.8,160.8,614.8,162.3,616.7,164.8z"/>
		<path class="st35" d="M620.7,253.8c0-0.7,0-1.3,0-2c-2-3.5-4.9-5.1-8.9-4.7c-1.5,0.1-2.9-0.2-4.1-1.3c-3.9-0.2-9.2,1.4-7.5-6
			c0.1-0.3-0.7-1.1-1.2-1.4c-3.3-1.7-5.8-4.1-8.5-6.6c-2-2-5.1,0.4-8-0.8c-2.5-1.1-4.3-1.8-5.1-4.6c-1.1-4-4.1-5.9-8.1-5.4
			c-4.9,0.6-8.9-2.9-13.8-2.7c-2.3,0.1-4.9-0.5-7.3-0.6c-3.9-0.2-4.3-1-1.7-5.7c-6.5,3.7-11.2-1.6-16.9-1.5c-4,0.1-6.3-4.9-10.9-5.3
			c-1.5-0.1,0.6-2.9,0-4.5c2.3,0.2,3.9,2.5,6.5,2.1c1.7-0.3,3.7-0.1,3.8-2.2c0-1.9,0.6-4.5-2.7-4.9c-1.7-0.2-3.4-1-5.9-1.8
			c2.9-1.7,5.2-0.9,7.4-1.1c1-0.9,0.1-2.4,0.9-3.3c2-1.1,4.1-0.9,4.9,1.3c1.2,3.3,2.8,3.4,5.3,1.7c1-0.7,2.2-0.5,3.2,0.3
			c1.6,2.6,0.7,5.5,1,8.3c0.2,2.7,1.3,3.7,3.9,2.2c3.8-2.2,6.5-2.1,9.8,1.8c2.5,3,6.3,5.1,9.1,8.3c1.8,2.1,4.2,0.1,5.5-1.5
			c2.8-3.5,5.4-3.6,7.9,0.1c1,1.4,2.5,1.5,3.9,1.8c3.3,0.6,6.5,1.5,9.6,2.6c2.5,0.8,4.3,1.9,4.1,4.8c-0.2,2.5,0.9,2.5,3,2.2
			c4.6-0.7,5.2,0.2,4,5.1c-0.6,2.7,1.6,4.2,2.6,6.1c1.1,1.9,2.6,0.3,3.8-0.3c4.4-1.7,7.6,0.7,10.9,3c0.9,1.5,0.4,3.6,1.9,5.3
			c2-1.4,3.8-3.4,6.1-4.4c3.1-0.8,5.2-0.2,5.3,3.5c0,2.8,2.9,2.7,4.2,4.2c-1.5,2.7-3,3.5-5.7,1c-2.8-2.6-6.5-0.8-9.3-0.2
			c-2.2,0.4-0.6,4.7-1,7.2C622.1,253.8,621.4,253.8,620.7,253.8z"/>
		<path class="st36" d="M528.7,189.8c0,1.1,0.2,2.3-1,3c1-2.9-3.1-2.7-3-5c-0.1-1.7,0.5-3.3,1.1-4.8c1.5-3.8,3.7-4.7,7.2-2.6
			c4.3,2.7,8.9,3.9,14,3.1c2,0.2,3.5,1,3.7,3.3c0.1,1.8-0.8,3.6-0.2,5.4c0.5,1.7,1.7,1.8,3.1,1.1c0.2,0,0.5,0,0.7,0
			c0.4,0.1,0.8,0.3,1.2,0.6c2.6,3.8,5.2,1.6,7.8,0c1.4-0.4,2.8-0.4,4.3,0c1.9,0.7,2.7,2,3.2,4c1.7,6.2,3.9,8,10.3,8.6
			c3,0.3,5.3,1,3.6,5.9c4.4-4.9,9.4-4.5,14.4-4.3c-3.1-1.3-5.8-2.9-8-5.3c-1.4-1.5-2.2-2.9-0.9-4.8c0.3-0.4,0.7-0.6,1.2-0.7
			c3.2,1.4,6.1,2.9,8.9-1.2c1.4-2,3.3-0.4,3.5,3.5c0.4,5.9,5.9,12.4,11.2,13.5c0.5,0.1,1,0.2,1.5,0.2c7,0.5,7.6,1.3,6,8.3
			c4.9-0.2,9.8,1.4,14.7-0.1c0.6-0.2,1.3,0,2,0.1c1.5,0.2,3.1,0.6,3.2,2.5c0.1,1.7-1.1,2.3-2.5,2.6c-0.8,0.2-1.7,0-2.4,0.7
			c0.4,2,2.3,3.2,3,5c0.9,2.2,0,4.5-2,3.6c-3.5-1.6-7.6,0.2-10.7-2.9c-1.8-1.8-4.4-1.1-6.6-0.1c-2.4,1.1-4.5,0.8-6.1-1.6
			c-0.7-1.1-1.6-2.6-3-2c-1.7,0.7-0.1,2.4-0.4,3.6c-0.2,0.7-0.4,1.2-0.9,1.7c-3.6,4.1-4.1,4.1-6-0.7c-0.6-1.4-1.1-2.7-2.6-3.4
			c-1.7-0.8-1.7-2,0.1-2.8c1.3-0.6,2.6-1,1.6-2.8c-1-1.7-2.5-1.6-3.9-0.7c-4.1,2.8-4.6,1.2-4.3-2.9c0.5-5.7-5.2-3.5-7.8-5.4
			c-1.6-1.2-4.4-0.9-6.7-1.2c-1-0.1-2.3-0.1-2.7-1c-2.3-6-3.9-3.9-7-0.2c-3.3,3.9-5.5,3.2-8.5-1.3c-1.5-2.2-2.9-4.5-6-4.5
			c-1.1,0-2-0.4-2.2-1.6c-0.7-5.5-4-3.7-6.7-2.1c-1.6,1-3.1,2.2-5,1.5c-2.3-0.9-1.3-3.1-1.4-4.8c-0.2-2.6,0-5.3,0-8
			c-0.2-2.5-1.1-4.1-4.1-4.1C534.6,188.7,531.5,188.2,528.7,189.8z"/>
		<path class="st37" d="M546.7,184.8c-5.9,1-11-0.2-15.7-4.2c-2-1.7-3.7,1.1-4.2,3.2c-0.4,1.6-0.3,3.3-2.1,4.1c-2.8-1.5-5.4-3.8-9-3
			c-1.5-4.4-2.2-8.4,2.6-11.6c1.6-1.1-0.2-2.6-1.2-3.7c-1.1-1.2-2.7-2.3-1.8-4.2c0.9-1.8,2.7-1.7,4.4-1.4c0.5,0.1,1,0.4,1.4,0.7
			c0.4,0.3,0.7,1,1,1c5.7,0.1,9.9,4.6,15.7,4.7c4.8,0.1,8.9,3.1,13.5,4.2c2.7,0.7,4.8,3.5,3.9,7.1C553.3,185,549.3,183,546.7,184.8z
			"/>
		<path class="st38" d="M519.7,164.8c-1.2,0.2-2.9-0.6-3.6,0.9c-0.9,2,1.5,1.7,2.2,2.5c1.1,1.4,2.3,2.9,2.7,4.6
			c0.8,3.1-2.2,1.3-3.2,2.2c-1.4,1.3-3.2,2.4-2.6,4.9c0.4,1.6,0.3,3.3,0.5,4.9c-0.7-2.8-3.8-4.9-1.6-8.4c0.9-1.5-1.2-1.4-2.2-1.5
			c-2.3-0.3-4.7,0.7-6.7-1.1c-0.8-0.7-2.3-1-1.5-2.6c0.7-1.3,1.8-1.5,2.9-0.7c1.4,0.9,2.8,2.1,4.5,0.8c0.9-0.7,0.7-1.9,0.3-2.8
			c-0.9-1.9-2.7-1.6-4.4-1.6c-1.8,0-3.6-0.2-5.4,0.5c-2.5,1-2.9-0.6-2.8-2.5l0,0c1.6-2.1,3.8-3.1,6.4-3.4c1.8-0.2,3.7-0.3,5.4-1
			C513.7,159.3,517.7,161.2,519.7,164.8z"/>
		<path class="st17" d="M478.8,162.1c-2.8,2.1-3.2,3.7-2.1,6.6c1.6,3.9-3.8,3-5.1,5.4c-0.4,0.8-2,1-2.5-0.2c-1-2-0.3-3.8,1.3-5.4
			c0.8-0.8,2.2-1.5,1.8-2.7c-0.5-1.7-2.2-0.8-3.4-1c-1.1-0.2-2.6,0.2-2.7-1.4c-0.1-1.7,1.4-1.5,2.5-1.6c2.1-0.1,4.3,0,6.5,0
			C475.9,161.8,476.9,162,478.8,162.1z"/>
		<path class="st32" d="M518.7,200.8c-1.3,0-2.7,0-4,0C516.1,198.3,517.4,199.4,518.7,200.8z"/>
		<path class="st39" d="M455.7,288.8c3.3,0.4,5.3-1.1,6.5-4.1c1-2.5-0.2-3.8-2.1-5.4c-2.4-2.1-2.3-4.5,1.2-5.4c3.6-1,4-2.1,0.6-4
			c-0.8-0.4-1.3-1.1-1.3-2c0.1-2.3-0.7-4.4-3-4.3c-2.6,0.1-3.5,3.1-3.8,5c-0.6,4-1.1,8.4,2.6,11.6c3,2.5,0.8,3.5-1.4,4.3
			c-1.2,0.4-2.6,0.3-3.9,0.7c-1.5,0.4-3,1.2-4-0.5c-1-1.6,0.6-2.3,1.4-3.3c0.9-1.2,1.4-2.3,0.2-3.5c-1.2-1.2-2.1-0.5-2.9,0.5
			c-0.7,1-1.5,1.9-2.9,1.1c-1.3-0.7-1.3-1.7-0.9-3c0.8-2.3-0.8-3.3-2.5-3.2c-2.2,0-1.9,1.7-1.4,3.3c0.8,2.4-0.3,3.5-2.7,3.3
			c0-7.3-0.1-14.5,0-21.8c0.1-6.7,2.9-8.3,9-5.9c3,1.2,6.2,3.7,9.4-0.7c1.2-1.6,4.5-1.5,4.5,2.4c2,2.7,3.9,5.2,7.9,5.1
			c2.8,0,3.1,2.2,1.8,4.3c-1.1,1.9-2.8,3.7-0.8,5.8c1.9,1.9,4.5,2.4,7,1.6c7.1-2.4,15-0.3,21.8-4.1c2.3-1.3,3.7,0,5.4,1.9
			c2.8,3.2,4.9,8.2,10.8,5.7c1.4-0.6,2,0.7,2,2.1c0.1,1.3-0.3,2.7,1,3.7c2.2,1.2,4,2.4,4.7,5.2c0.5,2,1.6,4.1,4.7,2.7
			c2.2-1,3.4,0.3,3.6,2.6c0.1,2.1-0.3,3.7-2.9,3.5c-2.4-0.2-4.4,0.5-6.4,2c-2.7,2-5.4,0.4-5.1-2.9c0.1-1.6,0.5-3-1.3-3.8
			c-1.5-0.7-2.9-0.1-4.1,1c-2.8,2.4-5.6,2.8-8.2-0.2c-0.9-1-2.1-1.4-3.1-0.7c-1.3,0.9-1,2.3-0.2,3.6c1.1,1.7,2.3,3,4.6,3.4
			c1.2,0.2,4.1,0.1,3.3,2.6c-0.7,2.1-2.8,0.7-4.3,0.3c-1.1-0.3-2.7,0-3.4-0.7c-3.1-3-5.6-1.3-8.1,1.2c-1.4-2.5-0.6-4.7,0-7
			c-5.7,1.5-6.3,1-6.7-5.3c-0.2-2.4-0.1-4.7-1.8-6.5c-0.9-1-2.1-1.2-3.2-0.7c-1.4,0.7-0.7,1.8-0.2,3c1.6,3.8,0.4,5.8-3,5
			c-5.3-1.2-6.1,1.5-5.7,5.7c-0.9,1.2-2,2.1-2.7,3.4c-1.9,2.3-3.7,2.2-5.3-0.4c-2.5-0.6-3.5-3-5.6-4.3
			C452.8,291.2,454.7,290,455.7,288.8z"/>
		<path class="st5" d="M435.7,281.8c0,0.7,0,1.3,0,2c0.3,0.2,0.4,0.4,0.3,0.7c-0.1,0.2-0.2,0.3-0.3,0.3c-0.7,1.3-1.7,2.3-3,3
			c-0.8-1.6,3.2-3.3,0.3-4.4c-1.4-0.6-4.1-0.2-5.5,2.1c-1.5,2.4-3.3,4.7-6.4,5.9c3.2-6.2-0.6-10.2-7.2-11.4c-5.4-1-6.6-3.5-4.3-8.2
			c2.7-0.3,4.5,1.7,5.6,3.4c4.2,6.2,11,5.2,16.9,6.6C433.4,282.1,434.6,281.8,435.7,281.8z"/>
		<path class="st25" d="M462.5,247.4c-0.2,1-0.7,1.4-1.7,1.3c-0.9-0.1-1.6-0.7-1.7-1.5c-0.1-1.1,0.9-1.2,1.7-1.2
			C461.8,245.9,462.4,246.4,462.5,247.4z"/>
		<path class="st40" d="M610.7,234.8c-0.1-1,0-2-0.3-3c-0.3-1.3-3.3-2.7-0.3-3.7c1.8-0.6,4.7-1.6,5.6,2c0.8,3.2,2.5,3.1,5.2,1.6
			c2.8-1.5,5.8-1.9,8.5,1.1c1,1.1,2.5,3.2,4.6,0.1c1.3-2,1.8,1.4,3,1.9c0.9,0.4,1.7,1.2,2.6,0.2c0.8-0.8,0.1-1.5-0.4-2.2
			c-1.6-2.1-3-4.4-5.3-6.1c1.8-1.4,3.5-0.7,5.1-0.9c1-0.1,2.2,0,2.3-1.4c0.1-1.3-1.1-1.8-2-1.6c-6,1.8-12.2-0.9-18.4,0.9
			c-0.5-1.5-0.8-3.3,0.6-4.8c0.9-1,1.4-1.9,0.2-3c-1-0.9-1.8-2.6-3.7-1.4c-1.2,0.8-2.4,0-3.6-0.1c-7.1-0.5-8-7.4-11.9-11.1
			c-1.6-1.5,0.5-3.5,0.1-5.2c-0.1-0.6-0.3-1.4-0.7-1.7c-0.6-0.4-1.2,0.1-1.7,0.6c-4,4.6-4.7,4.6-9.6,0.8c-1.7-3.4,0.2-5.5,3.1-5.3
			c5.3,0.3,4.1-2.7,3.7-5.6c4.3-2.7,5.2-2.2,5.4,3c2.3,0.1,3.5-2.6,5.8-2.2c0.7,0,1.3,0,2,0c2.5,2.9,4.4,6.3,8.9,7.1
			c2.3,0.4,2.5,3.1,1.8,5.4c-0.2,0.4-0.5,0.8-0.9,1.1c-0.3,0.9-3.8,0.5-1.2,2.3c2.4,1.6,2.4,3.7,2.8,6c0.6,3.4,2.2,5.3,6,4.2
			c0-1.6-1.3-1.7-1.9-2.4c-1.9-2-1.5-3.8,1.1-4.4c4.2-0.9,8.5-0.5,12.8-1.4c2-0.4,4.5,1.5,5.5,3.7c0.8,1.8,1,3.8,2.9,5
			c0.3,0.2,0.4,0.5,0.5,0.9c1,2.9-4.4,3.8-2.1,7.4c2.3,3.6-1.8,4.2-3.2,5.9c2.9-1.3,5.3-2.8,3.4-6.8c-0.5-1-0.1-2.5,1.2-2.9
			c2.1-0.5,5.3-0.8,6,0.9c1.3,3.3,4.3,2.9,6.5,4.2c1.5,0.8,1.6,0.9,3.3-0.6c1.8-1.6,2.7-1.2,2.7,1c-0.1,2.6,1.1,3.3,3.3,3.9
			c3.2,0.9,4.1,5.1,7.7,5.7c-3.1,3.1-6,3.2-8.3-0.8c-0.8-1.4-1.7-2.5-3.5-2c-1.3,0.3-2,1.2-2,2.5c-0.1,2.2,1.5,2.2,3,2.4
			c0.9,0.1,1.6,0.4,1.6,1.5c0,2.1-2.8,0.8-3.2,2.7c1.5,1.7,4.8-0.2,5.3,1.2c0.9,2.7,1.9,3.1,4.4,1.5c-0.3,4.3-3.8,8.4,1.1,11.6
			c0.2,0.1,0,1-0.2,1.2c-0.8,0.7-1.7,1.1-2.6,0.2c-2.9-2.8-5.8-2.4-9-0.3c-0.8,0.6-2,0.9-3.3,0.5c-5.8-2-14.1,3.6-17.7-5.4
			c-0.9-2.3-0.9-5.1-4.5-4.7c-3.7,0.2-6.3-0.2-5.6-5.2c0.4-3.2-2.9-1.1-4.4-1.8c-0.2,0-0.5,0.1-0.7,0.1c-1.8,0.2-3.7,0.1-5.5-0.1
			c-0.7-0.1-1.3-0.5-1.8-1C617.5,236.4,614.6,234.1,610.7,234.8z"/>
		<path class="st41" d="M554.7,159.8c1.8,3.6,5.7,2.9,8.6,3.5c3.4,0.7,5,1.7,4.5,5.4c-0.6,3.7,1.3,4.7,4.7,3.7
			c2.3-0.7,5.1-2,5.3,2.4c-2.9,5.8-4.2,6.5-9.7,5.7c-2.8-1.6-5.5-3.5-8.3-5.2c-2.7-1.7-5-4.1-8.7-2.9c-1.4,0.5-2.6-1.1-3.6-2.3
			c-1-1.8-1.1-3.7-1-5.7c0.1-0.2,0.2-0.4,0.3-0.7c2.2,0.4,3.2-1.3,4.5-2.4C552.2,160.5,552.9,158.9,554.7,159.8z"/>
		<path class="st41" d="M539.7,167.8c-0.1-0.7-0.1-1.3-0.2-2c-0.4-1.4-3.2-1.6-2-3.4c0.8-1.3,2.8-0.5,4.3-0.6c2.3-0.9,5.5-4.1,5,2v0
			c-2.3,1.3-2.8,5.2-6.5,4.5C540.1,168.1,539.9,168,539.7,167.8z"/>
		<path class="st19" d="M541.7,151.8c4.4,0.2,9.4-1.5,12,4C549.3,155.7,545,155.4,541.7,151.8z"/>
		<path class="st42" d="M545.7,309.8c-2.2-2.8-5.2-3.6-8.4-2.5c-3.5,1.1-5.3,0.2-5.6-3.5c3.3-0.7,6-4.9,10-2
			c9.8,5,20.1,4.7,30.4,2.6c1.9-0.4,4.1-0.7,4.1-3.5c-0.1-2.5-2.3-2.2-3.8-3.1c-3.5-2.1-8.1-2.1-10.9-5.5c-0.3-4.3-4.1-5.2-6.9-7
			c-1.5-1-3.8-1.5-3.2-3.8c0.6-2.2,3.1-2.3,4.6-1.7c4.7,1.8,7.4-3.4,11.6-2.9c2,0.3,4.2-0.8,6,1c-2.7,5.6,0.3,8.8,4.1,12.6
			c3.7,3.7,8,7.6,8.6,13.6c0.1,1.2,0.7,2.4,2.1,2.4c3.8,0.1,4.5,3.1,5.1,5.7c1.2,4.8,3.3,9,6.3,13.5c0.9-2.2-0.6-4.6,1.6-5.9
			c1.8-1,3.8-1,5.7-1.3c1.3-1.3-0.8-1.9-0.6-3c0-2.6,0-5.3,4-3.7c-0.1,3.4,3.1,4.2,5,6c-5.4,2.4-9.1,6.8-13,11
			c-2.2,1.6-4.3,1.3-6.3-0.4c-0.8,0.9-0.6,2.5-1.7,3.4c0,0.3,0,0.7,0,1c-7.9,0.7-13.8-3.4-19.4-8c-2.8-2.3-5.8-4.4-8.9-6.2
			c-1.5-0.9-4.8-2.5-0.1-3.9c1.2-0.4,1.7-1.6,0.7-2.2c-1.8-1.1-4.9-1.3-5.3,0.4c-1,4.3-5,5.4-7,8.5c-2.5,3.7-5.4,4.7-9,1.5
			c-0.4-2.6-3.9-3.1-4-6c-0.7-5.1,4-2,5.6-3.8C547.6,311.7,545.8,311.1,545.7,309.8z"/>
		<path class="st29" d="M594.7,331.8c0.2-1.4-0.4-2.9,0.6-4.4c2.4,0.9,4.8,1.8,7.4,1.4c1.5,0.3,2.9-1.8,5.2,0.4
			C603.1,330.2,598.9,331,594.7,331.8z"/>
		<path class="st43" d="M660.7,223.8c-1.5,0.2-2.9,0.4-4.4,0.7c-1.3,0.3-2.8,0.1-2.3-1.4c1.1-3.8-1.4-3-3.5-3.3
			c-2.9-0.5-3,0.6-2.4,2.9c0.7,2.9-2.7,7.8-5.5,8c-1,0.1-1.6-0.4-1.9-1.2c-0.5-1.1,0.4-1.2,1-1.7c1.9-1.5,7.9-1.4,2.7-6.3
			c-1.3-1.3,0.9-2.5,1.9-3.4c1.7-1.6,3.9-3.2-0.6-3.9c-0.9-0.1-1.7-0.6-1.6-2.1c0.3-3.9-2.4-6-6-4.8c-3.1,1.1-6.3,0.2-9.4,0.5
			c-1.1,0.1-2.6-0.2-2.8,1.4c-0.2,1.3,1,1.5,2,1.6c1.7,0.3,2.9,1.2,2.4,3c-0.4,1.8-2.1,1.9-3.6,1.9c-3.7-0.1-5.9-2-6.1-5.8
			c-0.1-2.6,0.5-5.5-3.7-5.5c-0.9,0-1.2-1-1.2-1.9c0-0.9,0.4-1.6,1.4-1.8c1.1-0.1,2.3-0.1,3.5-0.2v0c0.5-3.8-0.7-6.2-5-6
			c-2.3,0.1-4.5,0.3-3.6-3.4c0.2-1-0.9-2.4-1.4-3.6c3.7-0.2,7.6,0.8,11.8-2.4c-1,2.9-2.3,4.7-1.9,6.8c0.2,1.2,0.4,2.7,1.8,2.5
			c3.9-0.8,5.9,3.7,9.6,3.3c1.9-0.2,1.4,3.1,3.6,2.9c1.6,0,3.3,0,4.9,0c3.3-0.1,6.5-0.6,7.8,3.9c0.4,1.4,2.8,2.1,4.2,3.2
			c2.5,3.8,3.1,8.8,7.1,11.8C661.1,220.6,660.7,222.4,660.7,223.8z"/>
		<path class="st38" d="M547.7,169.8c2.1,1,5,0.6,6.4,1.1c5,2,10,4.5,13.6,8.9c0.6,0.8,0.6,1.5-0.1,2.3c-4.3,0.5-8.7,2.4-13-0.3
			c-0.7-4.4-2.7-7.7-7.6-6.9c-3.3,0.6-4.2-2.6-6.6-3.1c-4.1-1-9.2,1.5-12.1-3.8c-0.4-0.7-2.8-0.3-4.3-0.2c-2.2,0.1-3.5-0.6-3.3-3
			c3.7-1,7.3-0.9,11,0c3.5-1.2,5.2,2.3,8,3l0,0C542,169.9,545.5,167.3,547.7,169.8z"/>
		<path class="st44" d="M531.7,164.8c-3.7,0-7.3,0-11,0c-0.3,0-0.7,0-1,0c-1.4-2.9-3.4-1.8-5.7-0.4c0.2-2.9,1.1-6-3.7-3
			c-3.2,2.1-8,1.4-11.6,3.4c-0.1-3.7,1.4-8.2-4.8-8.7c-1.3-0.1-1.3-1.9,0-2.7c4-2.5,8.8-0.9,11,3.6c1.3,2.6,3.5,4,6,1.9
			c3.4-2.8,5.5-1.4,7.6,1.6c2.4,3.3,6.1,3.9,9.6,2.6C530.6,162.3,531.3,162.8,531.7,164.8z"/>
		<path class="st5" d="M432.7,287.8c-0.2,2.2,2,2.7,3,4c-1.2,0-2.3,0-3.5-0.1c-1.2-0.1-1.8-1-1.9-2
			C430.2,288.1,431.5,288,432.7,287.8z"/>
		<path class="st28" d="M502.1,217.1c3.2,4.3,5.9,7.2,10.6,5c1.4-0.6,2.6,0.4,2.8,2c0.1,1.7-1.2,1.7-2.4,1.7
			c-3.6,0.1-7.3,0.1-10.9,0.3c-2.3,0.1-2.2-0.9-1.4-2.4C501.7,222.1,501.7,220.3,502.1,217.1z"/>
		<path class="st4" d="M475.7,238.8c-1.6-1.8-3.3-0.4-5-0.2c-1.9,0.2-4.7,1.4-4.9-2.2c-0.2-3.2,2.3-2.4,4.2-2.6
			c2.9-0.3,5.5,0.3,8,1.8c0.9,0.5,2.6,0.1,2.5,1.8c-0.1,1.6-1.6,1.3-2.7,1.4C477,238.9,476.4,238.8,475.7,238.8L475.7,238.8z"/>
		<path class="st4" d="M457.3,235.5c-0.8,0-1.2-0.2-1.1-0.8c0.1-0.3,0.7-0.6,1.1-0.7c0.2-0.1,0.5,0.3,0.7,0.5
			C457.7,234.8,457.5,235.2,457.3,235.5z"/>
		<path class="st12" d="M607.7,245.8c2.5,0,5-0.1,7.5,0c3.7,0.2,6,1.8,5.5,6c-4-0.9-7.4-3.7-11.7-3.6
			C608.1,248.3,607.8,246.8,607.7,245.8z"/>
		<path class="st45" d="M567.7,276.8c-0.1,1.8-1.4,2-2.8,2c-1.4,0-3.2-0.5-1.2,2c0.9,1.1-1.2,1-1.9,0.9c-2.4-0.2-4.9-0.7-7.3-0.9
			c-0.9-0.1-2.2-0.1-2.2,1.2c0,0.8,0.8,1.6,1.7,1.5c3.1-0.2,4.3,3.2,7.2,3.7c2.4,0.4,1.4,2.8,0.6,4.5c-2.7,1.5-4,4.8-7,6
			c-3.5-0.3-3.2-3-2.9-5.3c0.4-3.7-1-5.3-4.8-4.8c-0.8,0.1-1.7,0.1-2.5,0c-2.7-0.3-5.3-0.7-5.8-4.2c-0.5-3.5,1.8-6.1,4.3-6.4
			c5.6-0.7,2.7-3.2,1.8-5.4c0.3-4.1,2.6-4.6,5.8-3c4.6,2.3,9,4.3,14.4,3.2C568.8,271.2,567.4,274.8,567.7,276.8z"/>
		<path class="st29" d="M554.7,297.8c2-2.3,2.5-6.5,7-6c4.4,1.8,8.5,4.5,13.3,4.9c3.1,0.3,2.7,2.4,2.6,4.3c0,1.8,0.4,3.6-2.5,4.5
			c-7.4,2.2-14.8,0.8-22.2,1.4c-3.8,0.3-6.7-2.5-10.3-2.5c-1,0-0.9-1.6-0.9-2.6c-1.1-4.3,2.3-5.7,5-7.4c2.2-1.4,2.6,0.5,3.5,2
			C551.9,299.3,552.9,299.5,554.7,297.8z"/>
		<path class="st39" d="M524.7,278.8c-1,1.3-2,1.3-3,0c0.1-1.2,0.4-2.5,1.7-2.6C525.1,276.2,524.6,277.8,524.7,278.8z"/>
		<path class="st45" d="M608.7,319.8c-1.3,0-2.7-0.1-4,0.1c-2.6,0.3-4.8,1.1-2.8,4.4c0.6,1.1,1.1,2.4-0.6,2.8c-1.1,0.3-2.7,0-3.1-1
			c-1.6-4.2-4.7-7.7-5.6-12.2c-0.6-2.7,0.2-7.1-5.3-5.8c-1.8,0.4-1.9-2.2-2.1-3.4c-1.3-7.6-6.8-12.8-12.1-17
			c-3.6-2.9-2.8-4.2-1.3-6.9c0.6-1,1.3-1.9,1.9-2.9c2.7,1.1,5.7,1.9,5.1,5.9c-0.1,0.7,0.3,1.8,0.8,2.2c1.1,0.8,1.7-0.4,2.4-1
			c1.9-1.5,3.1-4.5,5.9-4c3.8,0.7,7.6,1.9,11.2,3.4c2.3,0.9,1.5,3.5,1.4,5.4c-0.1,3.2-2.5,4-5.2,4.4c0.8,2.9,3.6,3.8,5.3,5.7
			c2.2,3.2,3.4,7.1,8.5,7.3c2.7,0.1,1.7,2.9,1.5,4.7c-4.1-0.2-2.7,2.9-3,5C608.7,317.6,609.9,318.3,608.7,319.8z"/>
		<path class="st0" d="M527.7,239.1c1.1,0.9,2.7,1.6,3.5,2.9c0.5,0.8-0.8,1.8-1.8,1.7c-1.8,0-3.2-1.1-3.9-2.6
			C525.2,240.3,526.5,239.6,527.7,239.1z"/>
		<path class="st5" d="M465.7,296.8c-0.2-2.2,0.8-3.2,3-3c3.2,0.9,2.2,3.3,1.4,5c-1.3,2.6-1.5,5.2-1.4,8c-2.3,0-4.7,0-7,0
			c0-1.4-1-1.8-2.2-2.2c-2.7-0.9-5.1-2.6-4.4-5.5c0.6-2.6,3.7-0.8,5.6-1.3C462.9,299.8,464.7,300.1,465.7,296.8z"/>
		<path class="st5" d="M455.7,321.8c-2.5-2.2-4.3-11.8-2.6-14c1.2-1.6,3.1-0.7,4.6-1C457.1,311.8,456.4,316.8,455.7,321.8z"/>
		<path class="st29" d="M545.7,309.8c2.2,0.6,3.4,2.1,4.3,4.2c-2.3,2.4-6.7-1.5-8.3,2.8c-0.2,0.1-0.3,0.2-0.5,0.2
			c-3.2,0.1-7.3,0.3-7.2-3.7c0.1-4.2,4.5-3.8,7.7-3.9C543.1,309.4,544.4,309.7,545.7,309.8z"/>
		<path class="st29" d="M571.1,345.1c-0.1,1.3-0.9,2-2.1,2.3c-1.1,0.2-1.3-0.8-1.3-1.6c0-1-0.5-2.5,1.3-2.5
			C570,343.3,570.7,344.2,571.1,345.1z"/>
		<path class="st39" d="M435.7,284.8c0-0.3,0-0.7,0-1c0.6-0.6,1.1-1.3,1.8-1.6c1.5-0.8,2.9-0.1,4.2,0.8c0.6,0.4,0.8,1,0.4,1.7
			c-0.9,1.6-2.4,0.4-3.6,0.8C437.4,285.9,436.6,285.2,435.7,284.8z"/>
		<path class="st29" d="M465.7,296.8c-0.3,1.6,0.9,3.9-1,4.5c-2.5,0.8-2.7-2.3-4-3.5c0-0.3,0-0.7,0-1
			C462.4,297.8,464.1,297.8,465.7,296.8z"/>
		<path class="st5" d="M453.1,287.7c0.5-1.4,1.5-1.8,2.7-1.8c0.6,0,1.6,0.2,1.2,0.9c-0.4,0.8-0.5,2.3-2.1,2.1
			C453.9,288.7,453.2,288.5,453.1,287.7z"/>
		<path class="st41" d="M608.7,187.8c-1.3,0.6-1.3,2.8-3.3,2.5c-1.7-0.2-2.4,3.1-4.1,1.7c-1.3-1.1,0.3-3.1,0.3-4.4
			c-0.1-3.3-2.6-0.3-3.9-0.8c-0.6,0.6-1.4,0.7-2.2,0.5c-4.7-2-9.8-2.6-14.8-3.5c-1.8-0.3-3.7-0.4-3.6-3c1.3-2.2,3.5-3.7,4.6-6.1
			c5,0.1,10.6-1.2,13.2,5c0.3,0.7,1.1,0.7,1.7,0.3c0.7-0.6,1-1.3,0.2-2.1c-1-1.1-1.8-2.3,0.2-3c1.4-0.5,3.8-0.3,3.6,1.4
			c-0.5,4.3,2.8,5.4,5.2,7.4C607.2,184.8,607.8,186.5,608.7,187.8z"/>
		<path class="st36" d="M595.7,186.8c0.7,0,1.3,0,2,0c1.5,1.4,2.9,2.8,1.3,5c-1.3,1.8-2,3.7-5.2,1.7c-1.8-1.1-3.1,2-3.1,4.3l0,0
			c-5.3,0.6-10.3-1.1-15.3-2.5c-2-0.5-1.9-2.9-2.1-4.7c-0.5-5.8-0.5-5.8-5.9-5.8c-0.6-1.1-0.5-2.1,0.2-3.1c0-0.7,0-1.3,0-2
			c5,1.6,6.9-3,10-5c1.3,0,2.7,0,4,0c1,3.5-1.3,4.9-4,6c-0.6,3.3-1,6.5,3.1,7.9c1,0.3,1.5,1.3,1.8,2.2c0.6,1.4,1.5,1.9,2.6,0.6
			C588,188.4,592.1,188,595.7,186.8z"/>
		<path class="st9" d="M528.7,189.8c1.6-3.5,5-2,7.6-2.6c0.9-0.2,1.9,0.6,2.9,0.5c5.5-0.6,4.2,2.1,2.5,5.1c-1.4-0.1-2.4,0.6-3.5,1.4
			c-2.3,1.7-4.8,3.1-5.1-1.8C533,189.6,530.7,189.8,528.7,189.8z"/>
		<path class="st12" d="M620.7,237.8c0.7,0,1.3,0,2,0c1.8,1.3,4.2-0.2,6,1l0,0c-0.5,2.5-3.2,2.9-4.5,4.8c-1.1,1.7-2.3,0.1-3-1
			C620.3,241.2,620.8,239.4,620.7,237.8z"/>
		<path class="st38" d="M567.7,184.8c1.1-0.1,1.8-0.7,2.4-1.6c0.7-1.1,1.7-1.6,3-1.1c1.2,0.5,1.5,1.6,1.7,2.8
			c0.5,3.2-1.7,7.3,1.3,9.3c2.3,1.6,6.1,1,9.1,1.6c1.9,0.4,3.7,1.2,5.6,1.9c-0.2,2.9,3.4,7.6,6.6,7.9c2.2,0.3,4.4,0.8,3.8,3.2
			c-0.5,2.1-2.7,0.6-4.2,0.7c-3.3,0.2-7.2-1.7-9.6,2.4c-0.5,0.8-2,1.1-3.1,1.4c-0.6,0.2-1.4,0.2-1.8-0.2c-0.9-0.8-0.1-1.5,0.5-2
			c2-1.5,2.5-3.6-0.5-3.3c-8.7,0.8-11.9-3.9-13.1-11.4c-0.1-0.7-1.1-1.2-1.6-1.8C565.6,191.5,565.5,188.2,567.7,184.8z"/>
		<path class="st46" d="M567.7,184.8c0,3.3,0,6.7,0,10c-1.7,0-3.3,0-5,0c-2.5-1.5-5.3-0.6-8-1l0,0c-0.7-0.7-1.3-1.6-1.1-2.6
			c0.7-3.5-1.9-3.1-3.9-3.4c0.2-2.2-0.8-3.2-3-3c1.9-3.2,5.5-1.6,8-3c4.3,0.7,8.7-1.5,13,0C567.7,182.8,567.7,183.8,567.7,184.8z"/>
		<path class="st35" d="M550,200.8c-1.6,0-2.6,0.2-3.6,0c-2.1-0.6-2.6-2.8-3.5-4.4c-0.4-0.6,0.3-1.6,1.1-2c2-1.1,3,0.5,4.2,1.6
			c0.8,0.6,1.5,1.3,2.4,1.7c1.2,0.7,4.1-0.6,3.6,2C553.8,202,551,200.2,550,200.8z"/>
		<path class="st37" d="M549.7,187.8c0.9-0.1,1.6-0.4,1.9-1.3c0.4-1,0.9-1.9,2.1-1.3c0.9,0.4,0.9,1.3,0.9,2.1c0,2.2,0,4.3,0,6.5
			c-0.3,0-0.7,0-1,0c-1.5,0.2-2.9,0.2-4-1C547.8,191.2,549,189.5,549.7,187.8z"/>
		<path class="st37" d="M554.7,193.8c2.9-1.8,5.9-3.8,8,1C558.9,199.2,557.1,199,554.7,193.8z"/>
		<path class="st9" d="M549.7,192.8c1.4,0.1,2.9-0.5,4,1C551.5,197,550.4,195.7,549.7,192.8z"/>
		<path class="st35" d="M628.7,238.8c-2-0.3-4.2,0.8-6-1C624.7,238.2,627,237,628.7,238.8z"/>
		<path class="st17" d="M547.7,169.8c-2.6-0.8-6.2,2-8-2c1.4,0,2.7,0,3.1-1.8c0.5-2.1,2.2-2.3,3.9-2.2
			C547.9,165.7,547.7,167.8,547.7,169.8z"/>
		<path class="st27" d="M608.7,319.8c-0.3-1-0.7-2-1-3c1.2,0.1,2.3,0.4,2.6,1.7C610.5,319.6,609.5,319.7,608.7,319.8z"/>
		<path class="st40" d="M620.7,200.8c0.9,0.1,2-0.3,2.5,0.9c0.1,0.2-0.4,0.8-0.8,0.9C621.1,202.8,620.9,201.8,620.7,200.8
			L620.7,200.8z"/>
		<path class="st40" d="M595.7,186.8c-1.2,1.1-2.2,2.8-4,2.8c-2.8,0-4.5,1.2-6,3.5c-1.4,2.1-3.6,3.1-4-1c-0.1-1.2-0.1-2.5-1.6-2.6
			c-1.4-0.1-4.1,0.5-3.5-1.1c1-2.6-2.7-5.7,1.2-7.6c2.6,3.4,6.8,1.6,10,2.9C590.4,184.8,593.8,183.9,595.7,186.8z"/>
	</g>
	
		<radialGradient id="SVGID_1_" cx="543.2295" cy="709.1501" r="140.3883" gradientTransform="matrix(1 0 0 -1 0 980)" gradientUnits="userSpaceOnUse">
		<stop  offset="0" style="stop-color:#FFFFFF"/>
		<stop  offset="1" style="stop-color:#D4145A;stop-opacity:0.7"/>
	</radialGradient>
	<path class="st47" d="M403.9,281.9c0.5,8.9,1.8,17.7,4.8,26.1c0,0,0,0,0,0c0,2.8,0.8,5.4,2.1,7.8c1.1,4.2,2.5,8.4,4.9,12.1l0,0
		c5,12.5,12.1,23.9,21.2,33.9h0l0,0c10.4,12.6,22.9,22.7,36.9,30.8v0c4,2.4,8.3,4.9,13,6.3c1.4,1.3,3.2,1.6,5,2.1
		c4.7,2.5,9.7,3.9,14.9,4.9h0c17,6,34.5,5.9,52.1,4.4c4.4-0.4,8.9-0.5,13-2.4c0,0,0,0,0,0c23.5-4.2,43.9-14.5,61.9-30v0h-0.1
		c2.8-2,5.1-4.2,7.1-6.7v0c7-6.2,13.2-13.1,18-21.1c3.8-4.5,6.6-10.1,8.9-15.1c0,0,0,0,0,0c8.1-14,12.5-29,14.1-45c0,0,0,0,0,0
		c1.6-2.2,0.8-4.7,0.9-7l0,0c1.1-7,1.8-14,0.1-21.1c-0.2-9.9-1.7-19.6-5-29l0,0c-1.8-8.5-5.1-16.3-9.1-23.9l0,0l0,0
		c-6-12.7-13.8-24.2-23.9-34l0,0c-7.3-8.3-15.6-15.4-25.1-21c-11.3-7.9-23.6-13.6-37-17c-10.8-3.7-22.1-5.4-33.5-5.8
		c-5.8-0.2-11.8-1.1-17.6,0.8l0,0c-0.6,0-1.3,0.1-1.9,0.1l0,0l0,0c-14.7,0.9-28.7,4.7-42.1,10.9c-12.6,5-23.9,11.9-34,20.9
		c0,0,0,0,0,0c-0.3,0.3-0.7,0.6-1,0.9c0,0,0,0,0,0c-7.5,5.2-13.2,12.2-18.9,19.2l0,0l0,0c-9.5,11.7-17,24.7-21.8,39.1
		c-2.3,4.7-3.3,9.9-4.5,14.9h0c-0.9,3-1.7,5.2-1.7,8.1v0c0,0.3-0.1,0.6-0.1,0.9c-2,6.5-2.1,13.2-2,19.9c-0.1,0.3-0.2,0.5-0.3,0.7
		C401.6,272.3,403.6,277.1,403.9,281.9z M546.4,212.1c-0.1,0.1-0.1,0.2-0.2,0.3c0-0.1-0.1-0.1-0.1-0.1
		C546.3,212.2,546.4,212.2,546.4,212.1z M541.6,301.8C541.6,301.8,541.7,301.7,541.6,301.8c0.1,0,0.1,0,0.1,0.1
		C541.7,301.8,541.7,301.8,541.6,301.8z M530.3,295.5c0,0,0-0.1,0-0.2C530.3,295.4,530.3,295.4,530.3,295.5z M455.8,288.8
		C455.8,288.8,455.8,288.8,455.8,288.8c-0.1,0-0.1,0-0.1,0c0,0-0.1-0.1-0.1-0.1c0,0,0.1,0,0.1,0
		C455.8,288.7,455.8,288.8,455.8,288.8z M632.7,258.9c0.2,0,0.4,0,0.6-0.1c-0.1,0.2-0.3,0.3-0.4,0.5
		C632.8,259.1,632.7,259,632.7,258.9z M487.8,215.6c0.1,0.1,0.1,0.1,0.2,0.2c-0.1,0-0.2,0-0.3,0
		C487.7,215.8,487.8,215.7,487.8,215.6z M476.9,332.6c0,0.1,0.1,0.2,0.1,0.3c-0.1,0-0.2,0-0.3,0
		C476.8,332.7,476.8,332.6,476.9,332.6z M594.7,354.8C594.7,354.8,594.7,354.8,594.7,354.8C594.7,354.8,594.7,354.8,594.7,354.8
		C594.7,354.8,594.7,354.8,594.7,354.8z M461.7,329.8C461.7,329.8,461.7,329.9,461.7,329.8C461.7,329.9,461.7,329.9,461.7,329.8
		C461.7,329.9,461.7,329.8,461.7,329.8z M519.1,163.8C519.1,163.8,519.1,163.8,519.1,163.8C519.1,163.8,519.1,163.8,519.1,163.8
		C519.1,163.8,519.1,163.8,519.1,163.8z M513.2,160.2c0.1,0,0.3,0,0.4,0C513.4,160.2,513.3,160.2,513.2,160.2z M441.2,240.3
		c0-0.2,0.1-0.4,0.1-0.5C441.3,240,441.3,240.2,441.2,240.3z M487,350c0.3-0.1,0.7,0.1,1,0.4C487.6,350.2,487.3,350.1,487,350
		C486.9,350,487,350,487,350z M579.7,375.7c1,0.1,1.9-0.2,3.2-1.5c0.4-0.6,0.8-1,1.2-1.5c0.2,0.1,0.4,0.1,0.6,0.1
		c-0.6,0.3-1.2,0.8-1.8,1.4c-0.7,1.3-1.4,2.4-2,3.2C580.6,376.8,580.2,376.2,579.7,375.7z M620.8,361.7c0,0.1,0,0.2,0,0.4
		c-0.1,0-0.2-0.1-0.3-0.1C620.6,361.9,620.7,361.8,620.8,361.7z M417.7,237.8c0,0-0.1,0-0.1,0c0,0,0.1-0.1,0.1-0.1
		C417.7,237.8,417.7,237.8,417.7,237.8C417.7,237.8,417.7,237.8,417.7,237.8z"/>
	<path class="st48" d="M602.2,308.8c2.2-6.3,2.4-12.9,2.5-19.4c0.1-12.3,0.2-24.7,0-37c-0.1-5.8-0.3-11.6-1.4-17.2
		c-2.4-12.5-9.7-21-21.8-25.1c-6.2-2.1-12.8-2.4-19.3-2.4c-12.4-0.1-24.8-0.2-37.1,0c-5.8,0.1-11.6,0.3-17.2,1.4
		c-12.4,2.4-20.9,9.7-25,21.8c-2.2,6.3-2.4,12.9-2.5,19.4c-0.1,12.3-0.2,24.7,0,37c0.1,5.8,0.4,11.6,1.4,17.2
		c1.6,9.5,6.7,16.9,14.9,22c6.3,3.9,13.5,5.2,20.7,5.4c8.4,0.2,17.4,0.3,25.4,0.5c0-0.1,0-0.1,0-0.2c6,0,11.5,0.2,17.4-0.1
		c5.8-0.2,11.5-0.3,17.2-1.4C589.6,328.2,598.1,320.8,602.2,308.8z M542.5,301.8c-17.9,0-32-14.3-32-32.3
		c0-17.6,14.4-31.7,32.3-31.7c17.5,0,31.7,14.4,31.7,32C574.5,287.6,560.3,301.8,542.5,301.8z M568.2,236.5c0-4.1,3.3-7.4,7.5-7.5
		c4.3,0,7.5,3.2,7.6,7.4c0,4.2-3.3,7.6-7.5,7.6C571.6,244.1,568.2,240.6,568.2,236.5z"/>
	<path class="st48" d="M542.6,249c-11.4,0-20.8,9.3-20.8,20.7c0,11.4,9.3,20.8,20.7,20.8c11.4,0,20.8-9.3,20.8-20.7
		C563.3,258.4,553.9,249,542.6,249z"/>
</g>
</svg>
